<svg width="1052" height="2135" viewBox="0 0 1052 2135" fill="none" xmlns="http://www.w3.org/2000/svg">
<rect y="116" width="268" height="251" fill="white"/>
<ellipse cx="134" cy="144.12" rx="134" ry="38.0365" fill="white"/>
<rect y="38.3852" width="268" height="106.083" fill="white"/>
<path d="M267 38.0362C267 42.7774 263.606 47.519 256.912 52.0114C250.255 56.4794 240.555 60.5423 228.479 63.9701C204.342 70.8216 170.938 75.0727 134 75.0727C97.0622 75.0727 63.6585 70.8216 39.5208 63.9701C27.445 60.5423 17.7454 56.4794 11.0876 52.0114C4.3937 47.519 1 42.7774 1 38.0362C1 33.295 4.3937 28.5534 11.0876 24.0611C17.7454 19.593 27.445 15.5301 39.5208 12.1024C63.6585 5.25079 97.0622 0.999756 134 0.999756C170.938 0.999756 204.342 5.25079 228.479 12.1024C240.555 15.5301 250.255 19.593 256.912 24.0611C263.606 28.5534 267 33.295 267 38.0362Z" fill="white" stroke="black" stroke-width="2"/>
<line x1="26.125" y1="59.3227" x2="26.125" y2="167.5" stroke="black" stroke-width="2"/>
<line x1="37" y1="63" x2="37" y2="225" stroke="black" stroke-width="2"/>
<line x1="39.5833" y1="64.2081" x2="39.5833" y2="171.687" stroke="black"/>
<line x1="33" y1="63" x2="33" y2="347" stroke="black" stroke-width="2"/>
<line x1="9.375" y1="50.9477" x2="9.375" y2="159.125" stroke="black" stroke-width="2"/>
<line x1="40.7812" y1="64.2081" x2="40.7812" y2="172.385" stroke="black" stroke-width="2"/>
<line x1="47" y1="66" x2="47" y2="290" stroke="black" stroke-width="2"/>
<line x1="62" y1="69" x2="62" y2="249" stroke="black" stroke-width="2"/>
<line x1="235" y1="63" x2="235" y2="327" stroke="black" stroke-width="2"/>
<line x1="241" y1="61" x2="241" y2="225" stroke="black" stroke-width="2"/>
<line x1="231.312" y1="62.8123" x2="231.312" y2="170.291" stroke="black" stroke-width="2"/>
<line x1="223.635" y1="66.3018" x2="223.635" y2="173.781" stroke="black" stroke-width="2"/>
<line x1="199" y1="71" x2="199" y2="253" stroke="black" stroke-width="2"/>
<path d="M524 366.5C524 420.206 545.335 471.713 583.311 509.689C621.287 547.665 672.794 569 726.5 569C780.206 569 831.713 547.665 869.689 509.689C907.665 471.713 929 420.206 929 366.5L911.133 366.5C911.133 415.468 891.68 462.43 857.055 497.055C822.43 531.68 775.468 551.133 726.5 551.133C677.532 551.133 630.57 531.68 595.945 497.055C561.32 462.43 541.867 415.468 541.867 366.5L524 366.5Z" fill="white"/>
<path d="M740 569H470.5C496.333 560.5 548.8 542.9 552 540.5C556 537.5 610.5 515.5 613.5 512C616.5 508.5 650 471.5 651.5 461C653 450.5 673.5 332.5 677 319.5C679.8 309.1 678.167 266.833 677 247C681.5 240.333 692 225.2 698 218C705.5 209 710.5 220 719.5 221C728.5 222 740 235 745 238C749 240.4 748.333 265.333 747.5 277.5L751 569H740Z" fill="url(#paint0_linear)"/>
<path d="M296.5 415H47.5C61 405.667 88.3 386.3 89.5 383.5C91 380 94.5 369.5 94.5 366C94.5 362.5 94 340.5 94.5 334.5C95 328.5 104 314 106.5 308.5C109 303 126.5 290 130.5 288C134.5 286 164 277.5 167.5 277C170.3 276.6 197.333 275.5 210.5 275L263.5 308.5L268 325L278.5 361L275 375.5L296.5 415Z" fill="url(#paint1_linear)"/>
<path d="M435.5 260.5C353.167 260.833 187.2 261.3 182 260.5C190.667 263.667 210.4 270.9 220 274.5C232 279 258.5 300 264.5 305.5C270.5 311 280 340 282.5 347C285 354 292 408 293 411.5C294 415 326.5 501 338 506C349.5 511 435.5 552.5 451.5 560C467.5 567.5 553 541.5 556 540C559 538.5 578 532.5 580.5 532C582.5 531.6 593.333 517.833 598.5 511C594.5 506 584.8 494.7 578 489.5C569.5 483 558 467.5 553 460C548 452.5 534 399.5 532.5 376C531 352.5 525 343 523 333.5C521 324 513 307 508 300C503 293 487 284.5 480 277C474.4 271 448 263.5 435.5 260.5Z" fill="white"/>
<path d="M758 253.5C758 240.637 752.89 228.301 743.795 219.205C734.699 210.11 722.363 205 709.5 205C696.637 205 684.301 210.11 675.205 219.205C666.11 228.301 661 240.637 661 253.5L679.163 253.5C679.163 245.454 682.359 237.738 688.048 232.048C693.738 226.359 701.454 223.163 709.5 223.163C717.546 223.163 725.262 226.359 730.952 232.048C736.641 237.738 739.837 245.454 739.837 253.5H758Z" fill="white"/>
<path d="M-4.24e-06 366.5C-3.11549e-06 379.363 5.10981 391.699 14.2053 400.795C23.3008 409.89 35.637 415 48.5 415C61.363 415 73.6992 409.89 82.7947 400.795C91.8902 391.699 97 379.363 97 366.5L48.5 366.5L-4.24e-06 366.5Z" fill="white"/>
<path d="M-4.24e-06 366.5C-3.11549e-06 379.363 5.10981 391.699 14.2053 400.795C23.3008 409.89 35.637 415 48.5 415C61.363 415 73.6992 409.89 82.7947 400.795C91.8902 391.699 97 379.363 97 366.5L78.8372 366.5C78.8372 374.546 75.6409 382.262 69.9516 387.952C64.2623 393.641 56.5459 396.837 48.5 396.837C40.4541 396.837 32.7377 393.641 27.0484 387.952C21.3591 382.262 18.1628 374.546 18.1628 366.5L-4.24e-06 366.5Z" fill="url(#paint2_linear)"/>
<path d="M292 366.5C292 338.254 280.779 311.166 260.807 291.193C240.834 271.221 213.746 260 185.5 260C157.254 260 130.166 271.22 110.193 291.193C90.2205 311.166 79 338.254 79 366.5H96.8965C96.8965 343.001 106.232 320.464 122.848 303.848C139.464 287.232 162.001 277.897 185.5 277.897C208.999 277.897 231.536 287.232 248.152 303.848C264.768 320.464 274.103 343.001 274.103 366.5H292Z" fill="#8655ED"/>
<path d="M542 366.5C542 338.254 530.779 311.166 510.807 291.193C490.834 271.221 463.746 260 435.5 260C407.254 260 380.166 271.22 360.193 291.193C340.221 311.166 329 338.254 329 366.5H346.897C346.897 343.001 356.232 320.464 372.848 303.848C389.464 287.232 412.001 277.897 435.5 277.897C458.999 277.897 481.536 287.232 498.152 303.848C514.768 320.464 524.103 343.001 524.103 366.5H542Z" fill="white"/>
<path d="M274 366.5C274 420.206 295.335 471.713 333.311 509.689C371.287 547.665 422.794 569 476.5 569C530.206 569 581.713 547.665 619.689 509.689C657.665 471.713 679 420.206 679 366.5L661.133 366.5C661.133 415.468 641.68 462.43 607.055 497.055C572.43 531.68 525.468 551.133 476.5 551.133C427.532 551.133 380.57 531.68 345.945 497.055C311.32 462.43 291.867 415.468 291.867 366.5L274 366.5Z" fill="#8655ED"/>
<path d="M708 205H1052V253H751.5C751.5 253 740.967 237.459 733 228.5C724.096 218.487 708 205 708 205Z" fill="white"/>
<path d="M661 253H679V367H661V253Z" fill="url(#paint3_linear)"/>
<path d="M751.5 2061.5L740.002 253L1116 253L1116 2135L751.5 2061.5Z" fill="white"/>
<defs>
<linearGradient id="paint0_linear" x1="575" y1="490" x2="729.5" y2="577.5" gradientUnits="userSpaceOnUse">
<stop stop-color="#8655ED"/>
<stop offset="1" stop-color="white"/>
</linearGradient>
<linearGradient id="paint1_linear" x1="147" y1="461.5" x2="243" y2="297" gradientUnits="userSpaceOnUse">
<stop offset="0.0462474" stop-color="white"/>
<stop offset="1" stop-color="#8655ED"/>
</linearGradient>
<linearGradient id="paint2_linear" x1="-16" y1="367" x2="106" y2="396" gradientUnits="userSpaceOnUse">
<stop offset="0.29439" stop-color="white" stop-opacity="0.19"/>
<stop offset="0.681083" stop-color="#8655ED"/>
</linearGradient>
<linearGradient id="paint3_linear" x1="670" y1="253" x2="670" y2="367" gradientUnits="userSpaceOnUse">
<stop stop-color="white"/>
<stop offset="1" stop-color="#8655ED"/>
</linearGradient>
</defs>
</svg>
