<svg width="374" height="1573" viewBox="0 0 374 1573" fill="none" xmlns="http://www.w3.org/2000/svg">
<path d="M5.64891e-05 1469L0.000127236 198L374 198L374 1563.5L360.5 1573L5.64891e-05 1469Z" fill="white"/>
<ellipse cx="187" cy="197.358" rx="187" ry="52.0872" fill="white"/>
<rect x="6.10352e-05" y="52.5652" width="374" height="145.271" fill="white"/>
<path d="M373 52.0872C373 58.7595 368.135 65.3494 358.755 71.5268C349.414 77.6777 335.833 83.2555 318.961 87.9551C285.23 97.3505 238.575 103.174 187 103.174C135.425 103.174 88.77 97.3505 55.0394 87.9551C38.1671 83.2555 24.5856 77.6777 15.2454 71.5268C5.86513 65.3494 1.00006 58.7595 1.00006 52.0872C1.00006 45.415 5.86513 38.8251 15.2454 32.6477C24.5856 26.4968 38.1671 20.919 55.0394 16.2193C88.77 6.82397 135.425 1 187 1C238.575 1 285.23 6.82397 318.961 16.2193C335.833 20.919 349.414 26.4968 358.755 32.6477C368.135 38.8251 373 45.415 373 52.0872Z" fill="white" stroke="black" stroke-width="2"/>
<line x1="36.0001" y1="81" x2="36" y2="377" stroke="black" stroke-width="2"/>
<line x1="50.6719" y1="86.0156" x2="50.6719" y2="233.198" stroke="black" stroke-width="2"/>
<line x1="55.0417" y1="87.9271" x2="55.0418" y2="235.109" stroke="black"/>
<line x1="45.8021" y1="86.0156" x2="45.8021" y2="232.242" stroke="black" stroke-width="2"/>
<line x1="12.6876" y1="69.7683" x2="12.6876" y2="217.906" stroke="black" stroke-width="2"/>
<line x1="57.0001" y1="88" x2="57" y2="307" stroke="black" stroke-width="2"/>
<line x1="65.2813" y1="90.7943" x2="65.2813" y2="238.932" stroke="black" stroke-width="2"/>
<line x1="87.0001" y1="95" x2="87" y2="545" stroke="black" stroke-width="2"/>
<line x1="327.276" y1="86.0156" x2="327.276" y2="232.242" stroke="black" stroke-width="2"/>
<line x1="336" y1="83" x2="336" y2="403" stroke="black" stroke-width="2"/>
<line x1="322" y1="86" x2="322" y2="307" stroke="black" stroke-width="2"/>
<line x1="311.693" y1="90.7943" x2="311.693" y2="237.977" stroke="black" stroke-width="2"/>
<line x1="277" y1="97" x2="277" y2="371" stroke="black" stroke-width="2"/>
</svg>
