<svg width="368" height="691" viewBox="0 0 368 691" fill="none" xmlns="http://www.w3.org/2000/svg">
<path d="M0.000214941 593.001L-2.6489e-05 85.0024L368 85.0024L368 691L0.000214941 593.001Z" fill="white"/>
<ellipse cx="184" cy="197.896" rx="184" ry="52.2292" fill="white"/>
<rect x="0.000244141" y="52.7083" width="368" height="145.667" fill="white"/>
<path d="M367 52.2292C367 58.9299 362.207 65.5384 352.983 71.7288C343.796 77.8948 330.435 83.4868 313.835 88.1988C280.649 97.6187 234.745 103.458 184 103.458C133.255 103.458 87.3516 97.6187 54.1657 88.1988C37.5658 83.4868 24.205 77.8948 15.0171 71.7288C5.79306 65.5384 1.00024 58.9299 1.00024 52.2292C1.00024 45.5284 5.79306 38.9199 15.0171 32.7296C24.205 26.5635 37.5658 20.9715 54.1657 16.2596C87.3516 6.8396 133.255 1 184 1C234.745 1 280.649 6.8396 313.835 16.2596C330.435 20.9715 343.796 26.5635 352.983 32.7296C362.207 38.9199 367 45.5284 367 52.2292Z" fill="white" stroke="black" stroke-width="2"/>
<line x1="35.5002" y1="81.4583" x2="35.5002" y2="230" stroke="black" stroke-width="2"/>
<line x1="49.8752" y1="86.25" x2="49.8752" y2="233.833" stroke="black" stroke-width="2"/>
<line x1="54.1669" y1="88.1667" x2="54.1669" y2="235.75" stroke="black"/>
<line x1="45.0002" y1="86" x2="45.0002" y2="383" stroke="black" stroke-width="2"/>
<line x1="12.5002" y1="69.9583" x2="12.5002" y2="218.5" stroke="black" stroke-width="2"/>
<line x1="56.0002" y1="88" x2="56.0002" y2="476" stroke="black" stroke-width="2"/>
<line x1="64.0002" y1="91" x2="64.0002" y2="343" stroke="black" stroke-width="2"/>
<line x1="85.0002" y1="95" x2="85.0002" y2="574" stroke="black" stroke-width="2"/>
<line x1="322" y1="86" x2="322" y2="282" stroke="black" stroke-width="2"/>
<line x1="331" y1="83" x2="331" y2="446" stroke="black" stroke-width="2"/>
<line x1="317" y1="86" x2="317" y2="343" stroke="black" stroke-width="2"/>
<line x1="306.709" y1="91.0417" x2="306.709" y2="238.625" stroke="black" stroke-width="2"/>
<line x1="272.209" y1="97.75" x2="272.209" y2="245.333" stroke="black" stroke-width="2"/>
</svg>
