<svg width="376" height="1269" viewBox="0 0 376 1269" fill="none" xmlns="http://www.w3.org/2000/svg">
<path d="M-0.000187843 1164.5L-0.000249528 97.9998L376 97.9997L376 1268.5L-0.000187843 1164.5Z" fill="white"/>
<ellipse cx="188" cy="204.126" rx="188" ry="53.8736" fill="white"/>
<rect x="4.57764e-05" y="54.3679" width="376" height="150.253" fill="white"/>
<path d="M375 53.8736C375 60.8058 370.09 67.6306 360.665 74.0157C351.275 80.3775 337.622 86.1462 320.661 91.0066C286.752 100.724 239.849 106.747 188 106.747C136.151 106.747 89.2483 100.724 55.3394 91.0066C38.3782 86.1462 24.725 80.3775 15.3349 74.0157C5.91056 67.6306 1.00005 60.8058 1.00005 53.8736C1.00005 46.9413 5.91056 40.1165 15.3349 33.7314C24.725 27.3696 38.3782 21.6009 55.3394 16.7405C89.2483 7.02353 136.151 1 188 1C239.849 1 286.752 7.02353 320.661 16.7405C337.622 21.6009 351.275 27.3696 360.665 33.7314C370.09 40.1165 375 46.9413 375 53.8736Z" fill="white" stroke="black" stroke-width="2"/>
<line x1="36.2501" y1="84.023" x2="36.2501" y2="237.241" stroke="black" stroke-width="2"/>
<line x1="50.9375" y1="88.9655" x2="50.9375" y2="241.195" stroke="black" stroke-width="2"/>
<line x1="46" y1="89" x2="46" y2="310" stroke="black" stroke-width="2"/>
<line x1="13.0001" y1="72" x2="13.0001" y2="401" stroke="black" stroke-width="2"/>
<line x1="57" y1="91" x2="57" y2="348" stroke="black" stroke-width="2"/>
<line x1="65.6251" y1="93.908" x2="65.6251" y2="247.126" stroke="black" stroke-width="2"/>
<line x1="87" y1="98" x2="87" y2="397" stroke="black" stroke-width="2"/>
<line x1="329.021" y1="88.9655" x2="329.021" y2="240.207" stroke="black" stroke-width="2"/>
<line x1="337.833" y1="86" x2="337.833" y2="237.241" stroke="black" stroke-width="2"/>
<line x1="324" y1="89" x2="324" y2="617" stroke="black" stroke-width="2"/>
<line x1="313" y1="94" x2="313" y2="789" stroke="black" stroke-width="2"/>
<line x1="278.104" y1="100.828" x2="278.104" y2="253.057" stroke="black" stroke-width="2"/>
</svg>
