<svg width="1920" height="2532" viewBox="0 0 1920 2532" fill="none" xmlns="http://www.w3.org/2000/svg">
<path fill-rule="evenodd" clip-rule="evenodd" d="M-2 1997.5L380.5 1704.5V2461.5L-2 2784V1997.5ZM33 2040.75L348 1800V2422.01L33 2687V2040.75Z" fill="#8655ED"/>
<path d="M380.5 1704.5H384V1697.41L378.372 1701.72L380.5 1704.5ZM-2 1997.5L-4.12837 1994.72L-5.5 1995.77V1997.5H-2ZM380.5 2461.5L382.756 2464.18L384 2463.13V2461.5H380.5ZM-2 2784H-5.5V2791.53L0.25609 2786.68L-2 2784ZM348 1800H351.5V1792.92L345.875 1797.22L348 1800ZM33 2040.75L30.8747 2037.97L29.5 2039.02V2040.75H33ZM348 2422.01L350.253 2424.69L351.5 2423.64V2422.01H348ZM33 2687H29.5V2694.52L35.2531 2689.68L33 2687ZM378.372 1701.72L-4.12837 1994.72L0.128366 2000.28L382.628 1707.28L378.372 1701.72ZM384 2461.5V1704.5H377V2461.5H384ZM0.25609 2786.68L382.756 2464.18L378.244 2458.82L-4.25609 2781.32L0.25609 2786.68ZM-5.5 1997.5V2784H1.5V1997.5H-5.5ZM345.875 1797.22L30.8747 2037.97L35.1253 2043.53L350.125 1802.78L345.875 1797.22ZM351.5 2422.01V1800H344.5V2422.01H351.5ZM35.2531 2689.68L350.253 2424.69L345.747 2419.33L30.7469 2684.32L35.2531 2689.68ZM29.5 2040.75V2687H36.5V2040.75H29.5Z" fill="black"/>
<path fill-rule="evenodd" clip-rule="evenodd" d="M-5.9048 1985.26L382.404 1700L-344.369 1488.22L-761 1765.23L-5.9048 1985.26ZM-37.6375 1939.56L281.625 1704.49L-315.548 1530.47L-658.082 1758.76L-37.6375 1939.56Z" fill="#8655ED"/>
<path d="M382.404 1700L383.383 1696.64L390.19 1698.62L384.476 1702.82L382.404 1700ZM-5.9048 1985.26L-3.83267 1988.08L-5.22513 1989.1L-6.88396 1988.62L-5.9048 1985.26ZM-344.369 1488.22L-346.307 1485.31L-344.952 1484.41L-343.39 1484.86L-344.369 1488.22ZM-761 1765.23L-761.979 1768.59L-769.208 1766.48L-762.938 1762.31L-761 1765.23ZM281.625 1704.49L282.604 1701.13L289.402 1703.11L283.7 1707.3L281.625 1704.49ZM-37.6375 1939.56L-35.5623 1942.37L-36.9556 1943.4L-38.6166 1942.92L-37.6375 1939.56ZM-315.548 1530.47L-317.489 1527.56L-316.133 1526.66L-314.569 1527.11L-315.548 1530.47ZM-658.082 1758.76L-659.061 1762.12L-666.279 1760.02L-660.023 1755.85L-658.082 1758.76ZM384.476 1702.82L-3.83267 1988.08L-7.97692 1982.44L380.332 1697.18L384.476 1702.82ZM-343.39 1484.86L383.383 1696.64L381.425 1703.36L-345.349 1491.58L-343.39 1484.86ZM-762.938 1762.31L-346.307 1485.31L-342.432 1491.14L-759.062 1768.14L-762.938 1762.31ZM-6.88396 1988.62L-761.979 1768.59L-760.021 1761.87L-4.92564 1981.9L-6.88396 1988.62ZM283.7 1707.3L-35.5623 1942.37L-39.7127 1936.74L279.55 1701.67L283.7 1707.3ZM-314.569 1527.11L282.604 1701.13L280.646 1707.85L-316.527 1533.83L-314.569 1527.11ZM-660.023 1755.85L-317.489 1527.56L-313.607 1533.38L-656.141 1761.67L-660.023 1755.85ZM-38.6166 1942.92L-659.061 1762.12L-657.102 1755.4L-36.6583 1936.19L-38.6166 1942.92Z" fill="black"/>
<path fill-rule="evenodd" clip-rule="evenodd" d="M400.21 1689.79L777.556 1399.97L88.2093 1193.82L-316 1475.61L400.21 1689.79ZM370.938 1644.19L681.199 1405.37L114.779 1235.98L-217.555 1468.21L370.938 1644.19Z" fill="#8655ED"/>
<path d="M777.556 1399.97L778.558 1396.62L785.115 1398.58L779.688 1402.75L777.556 1399.97ZM400.21 1689.79L402.342 1692.57L400.922 1693.66L399.207 1693.15L400.21 1689.79ZM88.2093 1193.82L86.2077 1190.95L87.5935 1189.99L89.2121 1190.47L88.2093 1193.82ZM-316 1475.61L-317.003 1478.97L-323.95 1476.89L-318.002 1472.74L-316 1475.61ZM681.199 1405.37L682.202 1402.02L688.75 1403.97L683.334 1408.14L681.199 1405.37ZM370.938 1644.19L373.073 1646.97L371.653 1648.06L369.935 1647.55L370.938 1644.19ZM114.779 1235.98L112.774 1233.11L114.161 1232.14L115.782 1232.63L114.779 1235.98ZM-217.555 1468.21L-218.558 1471.56L-225.495 1469.48L-219.56 1465.34L-217.555 1468.21ZM779.688 1402.75L402.342 1692.57L398.078 1687.02L775.424 1397.19L779.688 1402.75ZM89.2121 1190.47L778.558 1396.62L776.553 1403.32L87.2065 1197.18L89.2121 1190.47ZM-318.002 1472.74L86.2077 1190.95L90.2109 1196.69L-313.998 1478.48L-318.002 1472.74ZM399.207 1693.15L-317.003 1478.97L-314.997 1472.26L401.213 1686.44L399.207 1693.15ZM683.334 1408.14L373.073 1646.97L368.803 1641.42L679.064 1402.59L683.334 1408.14ZM115.782 1232.63L682.202 1402.02L680.196 1408.72L113.776 1239.34L115.782 1232.63ZM-219.56 1465.34L112.774 1233.11L116.784 1238.85L-215.55 1471.08L-219.56 1465.34ZM369.935 1647.55L-218.558 1471.56L-216.552 1464.85L371.941 1640.84L369.935 1647.55Z" fill="black"/>
<path fill-rule="evenodd" clip-rule="evenodd" d="M400 1695L782.5 1402V2126L400 2444.5V1695ZM437 1739.09L745 1503V2086.37L437 2343V1739.09Z" fill="#8655ED"/>
<path d="M782.5 1402H786V1394.91L780.372 1399.22L782.5 1402ZM400 1695L397.872 1692.22L396.5 1693.27V1695H400ZM782.5 2126L784.74 2128.69L786 2127.64V2126H782.5ZM400 2444.5H396.5V2451.97L402.24 2447.19L400 2444.5ZM745 1503H748.5V1495.91L742.871 1500.22L745 1503ZM437 1739.09L434.871 1736.31L433.5 1737.36V1739.09H437ZM745 2086.37L747.24 2089.06L748.5 2088.01V2086.37H745ZM437 2343H433.5V2350.47L439.24 2345.69L437 2343ZM780.372 1399.22L397.872 1692.22L402.128 1697.78L784.628 1404.78L780.372 1399.22ZM786 2126V1402H779V2126H786ZM402.24 2447.19L784.74 2128.69L780.26 2123.31L397.76 2441.81L402.24 2447.19ZM396.5 1695V2444.5H403.5V1695H396.5ZM742.871 1500.22L434.871 1736.31L439.129 1741.86L747.129 1505.78L742.871 1500.22ZM748.5 2086.37V1503H741.5V2086.37H748.5ZM439.24 2345.69L747.24 2089.06L742.76 2083.68L434.76 2340.31L439.24 2345.69ZM433.5 1739.09V2343H440.5V1739.09H433.5Z" fill="black"/>
<path fill-rule="evenodd" clip-rule="evenodd" d="M802 1391L1184.5 1098V1788.5L802 2107.5V1391ZM834 1427.71L1156 1181V1762.4L834 2031V1427.71Z" fill="#8655ED"/>
<path d="M1184.5 1098H1188V1090.91L1182.37 1095.22L1184.5 1098ZM802 1391L799.872 1388.22L798.5 1389.27V1391H802ZM1184.5 1788.5L1186.74 1791.19L1188 1790.14V1788.5H1184.5ZM802 2107.5H798.5V2114.98L804.242 2110.19L802 2107.5ZM1156 1181H1159.5V1173.91L1153.87 1178.22L1156 1181ZM834 1427.71L831.871 1424.93L830.5 1425.98V1427.71H834ZM1156 1762.4L1158.24 1765.09L1159.5 1764.04V1762.4H1156ZM834 2031H830.5V2038.48L836.242 2033.69L834 2031ZM1182.37 1095.22L799.872 1388.22L804.128 1393.78L1186.63 1100.78L1182.37 1095.22ZM1188 1788.5V1098H1181V1788.5H1188ZM804.242 2110.19L1186.74 1791.19L1182.26 1785.81L799.758 2104.81L804.242 2110.19ZM798.5 1391V2107.5H805.5V1391H798.5ZM1153.87 1178.22L831.871 1424.93L836.129 1430.48L1158.13 1183.78L1153.87 1178.22ZM1159.5 1762.4V1181H1152.5V1762.4H1159.5ZM836.242 2033.69L1158.24 1765.09L1153.76 1759.71L831.758 2028.31L836.242 2033.69ZM830.5 1427.71V2031H837.5V1427.71H830.5Z" fill="black"/>
<path fill-rule="evenodd" clip-rule="evenodd" d="M792.814 1380.97L1179.79 1093.91L515.975 903.82L104 1183.72L792.814 1380.97ZM766.336 1340.1L1092.15 1098.46L533.218 938.403L186.354 1174.02L766.336 1340.1Z" fill="#8655ED"/>
<path d="M1179.79 1093.91L1180.76 1090.55L1187.57 1092.5L1181.88 1096.72L1179.79 1093.91ZM792.814 1380.97L794.899 1383.78L793.512 1384.81L791.851 1384.33L792.814 1380.97ZM515.975 903.82L514.008 900.925L515.363 900.004L516.938 900.455L515.975 903.82ZM104 1183.72L103.037 1187.09L95.8491 1185.03L102.033 1180.83L104 1183.72ZM1092.15 1098.46L1093.12 1095.1L1099.93 1097.05L1094.24 1101.27L1092.15 1098.46ZM766.336 1340.1L768.421 1342.91L767.033 1343.94L765.372 1343.47L766.336 1340.1ZM533.218 938.403L531.252 935.508L532.607 934.588L534.182 935.039L533.218 938.403ZM186.354 1174.02L185.39 1177.38L178.202 1175.32L184.387 1171.12L186.354 1174.02ZM1181.88 1096.72L794.899 1383.78L790.729 1378.16L1177.71 1091.1L1181.88 1096.72ZM516.938 900.455L1180.76 1090.55L1178.83 1097.28L515.011 907.185L516.938 900.455ZM102.033 1180.83L514.008 900.925L517.942 906.715L105.967 1186.62L102.033 1180.83ZM791.851 1384.33L103.037 1187.09L104.964 1180.36L793.778 1377.61L791.851 1384.33ZM1094.24 1101.27L768.421 1342.91L764.251 1337.29L1090.07 1095.65L1094.24 1101.27ZM534.182 935.039L1093.12 1095.1L1091.19 1101.83L532.255 941.768L534.182 935.039ZM184.387 1171.12L531.252 935.508L535.185 941.299L188.32 1176.91L184.387 1171.12ZM765.372 1343.47L185.39 1177.38L187.317 1170.65L767.299 1336.74L765.372 1343.47Z" fill="black"/>
<path fill-rule="evenodd" clip-rule="evenodd" d="M1204 1080L1586.5 787V1436.5L1204 1771V1080ZM1236 1112.87L1554 869V1409.59L1236 1688V1112.87Z" fill="#8655ED"/>
<path d="M1586.5 787H1590V779.91L1584.37 784.222L1586.5 787ZM1204 1080L1201.87 1077.22L1200.5 1078.27V1080H1204ZM1586.5 1436.5L1588.8 1439.13L1590 1438.09V1436.5H1586.5ZM1204 1771H1200.5V1778.71L1206.3 1773.63L1204 1771ZM1554 869H1557.5V861.905L1551.87 866.223L1554 869ZM1236 1112.87L1233.87 1110.09L1232.5 1111.14V1112.87H1236ZM1554 1409.59L1556.31 1412.22L1557.5 1411.18V1409.59H1554ZM1236 1688H1232.5V1695.72L1238.31 1690.63L1236 1688ZM1584.37 784.222L1201.87 1077.22L1206.13 1082.78L1588.63 789.778L1584.37 784.222ZM1590 1436.5V787H1583V1436.5H1590ZM1206.3 1773.63L1588.8 1439.13L1584.2 1433.87L1201.7 1768.37L1206.3 1773.63ZM1200.5 1080V1771H1207.5V1080H1200.5ZM1551.87 866.223L1233.87 1110.09L1238.13 1115.65L1556.13 871.777L1551.87 866.223ZM1557.5 1409.59V869H1550.5V1409.59H1557.5ZM1238.31 1690.63L1556.31 1412.22L1551.69 1406.96L1233.69 1685.37L1238.31 1690.63ZM1232.5 1112.87V1688H1239.5V1112.87H1232.5Z" fill="black"/>
<path fill-rule="evenodd" clip-rule="evenodd" d="M1197.83 1075.69L1581.63 784.39L955.297 612.469L531.481 892.784L1197.83 1075.69ZM1174.61 1036.13L1493.95 794.026L972.645 650.933L619.991 883.896L1174.61 1036.13Z" fill="#8655ED"/>
<path d="M1581.63 784.39L1582.56 781.015L1589.39 782.892L1583.75 787.178L1581.63 784.39ZM1197.83 1075.69L1199.95 1078.48L1198.57 1079.52L1196.91 1079.07L1197.83 1075.69ZM955.297 612.469L953.366 609.55L954.691 608.673L956.223 609.094L955.297 612.469ZM531.481 892.784L530.555 896.16L523.12 894.119L529.55 889.865L531.481 892.784ZM1493.95 794.026L1494.88 790.651L1501.72 792.529L1496.07 796.815L1493.95 794.026ZM1174.61 1036.13L1176.72 1038.92L1175.35 1039.96L1173.68 1039.51L1174.61 1036.13ZM972.645 650.933L970.715 648.013L972.04 647.138L973.571 647.558L972.645 650.933ZM619.991 883.896L619.065 887.271L611.624 885.228L618.062 880.975L619.991 883.896ZM1583.75 787.178L1199.95 1078.48L1195.72 1072.9L1579.51 781.602L1583.75 787.178ZM956.223 609.094L1582.56 781.015L1580.7 787.765L954.371 615.844L956.223 609.094ZM529.55 889.865L953.366 609.55L957.228 615.388L533.412 895.704L529.55 889.865ZM1196.91 1079.07L530.555 896.16L532.408 889.409L1198.76 1072.32L1196.91 1079.07ZM1496.07 796.815L1176.72 1038.92L1172.49 1033.34L1491.84 791.237L1496.07 796.815ZM973.571 647.558L1494.88 790.651L1493.03 797.401L971.718 654.308L973.571 647.558ZM618.062 880.975L970.715 648.013L974.574 653.853L621.92 886.816L618.062 880.975ZM1173.68 1039.51L619.065 887.271L620.918 880.521L1175.53 1032.76L1173.68 1039.51Z" fill="black"/>
<path fill-rule="evenodd" clip-rule="evenodd" d="M1606 777L1988.5 484V1097.5L1606 1416V777ZM1636 804.9L1957 560V1072.79L1636 1339V804.9Z" fill="#8655ED"/>
<path d="M1988.5 484H1992V476.91L1986.37 481.222L1988.5 484ZM1606 777L1603.87 774.221L1602.5 775.272V777H1606ZM1988.5 1097.5L1990.74 1100.19L1992 1099.14V1097.5H1988.5ZM1606 1416H1602.5V1423.47L1608.24 1418.69L1606 1416ZM1957 560H1960.5V552.927L1954.88 557.217L1957 560ZM1636 804.9L1633.88 802.118L1632.5 803.168V804.9H1636ZM1957 1072.79L1959.23 1075.48L1960.5 1074.43V1072.79H1957ZM1636 1339H1632.5V1346.45L1638.23 1341.69L1636 1339ZM1986.37 481.222L1603.87 774.221L1608.13 779.779L1990.63 486.778L1986.37 481.222ZM1992 1097.5V484H1985V1097.5H1992ZM1608.24 1418.69L1990.74 1100.19L1986.26 1094.81L1603.76 1413.31L1608.24 1418.69ZM1602.5 777V1416H1609.5V777H1602.5ZM1954.88 557.217L1633.88 802.118L1638.12 807.683L1959.12 562.783L1954.88 557.217ZM1960.5 1072.79V560H1953.5V1072.79H1960.5ZM1638.23 1341.69L1959.23 1075.48L1954.77 1070.09L1633.77 1336.31L1638.23 1341.69ZM1632.5 804.9V1339H1639.5V804.9H1632.5Z" fill="black"/>
<path fill-rule="evenodd" clip-rule="evenodd" d="M1378.54 343.33L995 600L1596.92 774.938L1981.52 483.63L1378.54 343.33ZM1398.27 377.789L1079.5 592.5L1589.5 732.5L1902.27 495.056L1398.27 377.789Z" fill="#8655ED"/>
<path d="M995 600L994.023 603.361L986.815 601.266L993.053 597.091L995 600ZM1378.54 343.33L1376.59 340.422L1377.85 339.577L1379.33 339.921L1378.54 343.33ZM1596.92 774.938L1599.03 777.728L1597.63 778.79L1595.94 778.299L1596.92 774.938ZM1981.52 483.63L1982.31 480.221L1989.58 481.912L1983.63 486.42L1981.52 483.63ZM1079.5 592.5L1078.57 595.875L1071.22 593.857L1077.54 589.597L1079.5 592.5ZM1398.27 377.789L1396.32 374.886L1397.58 374.034L1399.07 374.38L1398.27 377.789ZM1589.5 732.5L1591.62 735.288L1590.24 736.333L1588.57 735.875L1589.5 732.5ZM1902.27 495.056L1903.06 491.647L1910.32 493.336L1904.38 497.844L1902.27 495.056ZM993.053 597.091L1376.59 340.422L1380.48 346.239L996.947 602.909L993.053 597.091ZM1595.94 778.299L994.023 603.361L995.977 596.639L1597.9 771.578L1595.94 778.299ZM1983.63 486.42L1599.03 777.728L1594.81 772.148L1979.41 480.84L1983.63 486.42ZM1379.33 339.921L1982.31 480.221L1980.73 487.039L1377.74 346.739L1379.33 339.921ZM1077.54 589.597L1396.32 374.886L1400.23 380.691L1081.46 595.403L1077.54 589.597ZM1588.57 735.875L1078.57 595.875L1080.43 589.125L1590.43 729.125L1588.57 735.875ZM1904.38 497.844L1591.62 735.288L1587.38 729.712L1900.15 492.268L1904.38 497.844ZM1399.07 374.38L1903.06 491.647L1901.47 498.465L1397.48 381.197L1399.07 374.38Z" fill="black"/>
<path fill-rule="evenodd" clip-rule="evenodd" d="M1765.26 56.0406L1399.5 337.468L2011.65 472.291L2376.19 156.23L1765.26 56.0406ZM1787.22 89.1208L1483.32 324.407L2001.45 430.435L2297.86 172.862L1787.22 89.1208Z" fill="#8655ED"/>
<path d="M1399.5 337.468L1398.75 340.887L1391.42 339.272L1397.36 334.695L1399.5 337.468ZM1765.26 56.0406L1763.12 53.2667L1764.32 52.3411L1765.82 52.5867L1765.26 56.0406ZM2011.65 472.291L2013.95 474.936L2012.62 476.087L2010.9 475.709L2011.65 472.291ZM2376.19 156.23L2376.75 152.776L2384.12 153.984L2378.48 158.874L2376.19 156.23ZM1483.32 324.407L1482.62 327.836L1475.15 326.307L1481.18 321.639L1483.32 324.407ZM1787.22 89.1208L1785.08 86.3533L1786.28 85.4203L1787.79 85.6669L1787.22 89.1208ZM2001.45 430.435L2003.74 433.077L2002.44 434.211L2000.75 433.864L2001.45 430.435ZM2297.86 172.862L2298.43 169.409L2305.78 170.615L2300.16 175.504L2297.86 172.862ZM1397.36 334.695L1763.12 53.2667L1767.39 58.8145L1401.63 340.242L1397.36 334.695ZM2010.9 475.709L1398.75 340.887L1400.25 334.05L2012.41 468.873L2010.9 475.709ZM2378.48 158.874L2013.95 474.936L2009.36 469.647L2373.89 153.585L2378.48 158.874ZM1765.82 52.5867L2376.75 152.776L2375.62 159.683L1764.69 59.4944L1765.82 52.5867ZM1481.18 321.639L1785.08 86.3533L1789.37 91.8883L1485.46 327.174L1481.18 321.639ZM2000.75 433.864L1482.62 327.836L1484.02 320.978L2002.15 427.006L2000.75 433.864ZM2300.16 175.504L2003.74 433.077L1999.15 427.793L2295.56 170.221L2300.16 175.504ZM1787.79 85.6669L2298.43 169.409L2297.29 176.316L1786.66 92.5747L1787.79 85.6669Z" fill="black"/>
<path d="M270.5 1707L86 1652.5V1843.5L270.5 1707Z" fill="white"/>
<path d="M672.5 1406.5L488 1352V1543L672.5 1406.5Z" fill="white"/>
<path d="M1080.5 1101.5L896 1047V1238L1080.5 1101.5Z" fill="white"/>
<path d="M1482.5 797.5L1298 747V934L1482.5 797.5Z" fill="white"/>
<path d="M1884.5 499.5L1700 457V636L1884.5 499.5Z" fill="white"/>
</svg>
