<svg width="1920" height="1198" viewBox="0 0 1920 1198" fill="none" xmlns="http://www.w3.org/2000/svg">
<path d="M48 40L8 70L-16 92V765L1939 782L1930 32H1823L1613 25L1525 32H1508L1410 15L1292 20L1158 40L1044 20H914L812 25L758 40L682 32L596 20L488 32L376 40L365 32L217 25L48 40Z" fill="black" stroke="black"/>
<path d="M762 173V124L741 173H762Z" fill="white"/>
<path d="M353 176V127L332 176H353Z" fill="white"/>
<path d="M1561 176V127L1582 176H1561Z" fill="white"/>
<path d="M1153 176V127L1174 176H1153Z" fill="white"/>
<path d="M1626 359V244L1703 359H1626Z" fill="white"/>
<path d="M1174 359V244L1251 359H1174Z" fill="white"/>
<path d="M1214 756V450L1291 756H1214Z" fill="white"/>
<path d="M698 746V440L621 746H698Z" fill="white"/>
<path d="M166 756V450L-13 756H166Z" fill="white"/>
<path d="M1752 746V440L1931 746H1752Z" fill="white"/>
<path d="M740 359V244L663 359H740Z" fill="white"/>
<path d="M291 354V239L214 354H291Z" fill="white"/>
<path fill-rule="evenodd" clip-rule="evenodd" d="M768.483 32.0966C777.255 28.4368 834.388 4.60125 951.545 4.01074C1050.18 3.51356 1128.36 20.4887 1157 28.6714C1176.67 22.7808 1230.1 10.9996 1325.41 10.9996C1420.71 10.9996 1502.77 22.1089 1527.86 27.9995C1555.36 22.6993 1610.97 13.7465 1686.06 14.0062C1756.11 14.2483 1865.23 27.0113 1915.16 32.852C1918.76 33.2729 1922.05 33.6578 1925 33.9996V49.9996V120.526C1898.26 108.379 1851.41 94.4997 1761.5 94.4996C1694.55 94.4995 1620.52 119.612 1596 130.499L1617.53 166.999H1925V209.514C1903.57 205.336 1879.3 202.185 1850.54 202.007C1786.26 201.609 1695.81 232.971 1667.15 242.907C1666 243.307 1664.95 243.672 1664 243.999L1730.5 353.999L1925 355.531V406.579C1862.4 416.238 1818.26 442.801 1800.68 453.384L1800.68 453.385L1800.67 453.39L1800.66 453.396C1797.26 455.445 1794.85 456.893 1793.5 457.5L1920.5 669.5L1925 670.045V874.242C1885.39 848.58 1806.68 815 1664.5 815C1461 815 1363.5 899.5 1363.5 906.5L1390.27 1023H1320.73L1300 906C1297.29 904.683 1293.68 902.759 1289.19 900.359L1289.19 900.358C1247.53 878.122 1129.31 815.013 933.473 815.013C716.5 815.012 608 900.853 608 906.5L585.292 1023H515.23L542 906.5C542 899.5 444.5 815 241 815C115.406 815 39.3419 841.201 -4 865.002V664.449L0.5 666L127 457.5C121.714 455.675 113.484 452.08 103.154 447.568C76.5504 435.946 36.0203 418.241 -4 409.035V355.516L189 353.996L255.5 243.996C254.553 243.669 253.5 243.304 252.346 242.904C223.69 232.968 133.238 201.605 68.9642 202.003C40.8661 202.177 17.0583 205.187 -4 209.221V167H302.772L323 132.846C322.375 132.438 321.643 131.943 320.8 131.373L320.799 131.372C307.481 122.359 266.312 94.4996 176.5 94.4996C92.7675 94.4996 37.9956 111.401 -0.630219 123.32C-1.76736 123.671 -2.8905 124.018 -4 124.359V50.0428L-40 49.9996L-18.1441 27.3546C27.5862 21.9957 136.083 11.2785 214.406 11.0049C286.447 10.7532 345.447 22.4925 376.77 28.725C379.502 29.2685 382.023 29.7702 384.324 30.2183C409.281 24.4787 492.59 12.9996 587.389 12.9996C682.189 12.9996 747.93 26.76 767.5 32.4996C767.695 32.4252 768.019 32.2899 768.475 32.0996L768.479 32.0983L768.483 32.0966ZM-4 124.359C-15.6131 127.936 -25.7288 130.978 -34.7221 132.846L-64 167H-4V124.359ZM-4 209.221C-20.4734 212.376 -35.2644 216.157 -49.1106 219.697C-59.6816 222.4 -69.702 224.961 -79.5 226.996L-192 356.996L-4 355.516V209.221ZM-4 409.035C-20.4309 405.256 -36.7758 402.908 -52.0358 403.003C-102.114 403.313 -138.564 412.632 -170.111 420.697C-180.682 423.399 -190.702 425.961 -200.5 427.996L-313 557.996L-4 664.449V409.035ZM-4 865.002C-35.1987 882.135 -49.4424 898.023 -53 902V1024H515L515.23 1023H-4V865.002ZM585.292 1023L585 1024.5H1321L1320.73 1023H585.292ZM1390.27 1023L1390.5 1024H1958.5V902C1955.6 898.753 1945.57 887.565 1925 874.242V1023H1390.27ZM1925 670.045L2324.5 718.5L2122 427.996C2112.2 425.962 2102.18 423.4 2091.61 420.697C2060.06 412.633 2023.61 403.314 1973.54 403.004C1956.35 402.897 1940.14 404.244 1925 406.579V670.045ZM1925 355.531L2111.5 357L1999 227C1989.2 224.965 1979.18 222.403 1968.61 219.7C1955.19 216.268 1940.87 212.609 1925 209.514V355.531ZM1925 166.999H1978L1945 130.999C1939.85 128.005 1933.42 124.352 1925 120.526V166.999ZM772.5 54.9996C772.5 51.953 846.101 30.5634 956.746 30.0095C1045.26 29.5664 1116.79 44.0421 1142.49 51.3354L1146.5 70.9996H770.5L772.5 54.9996ZM953.473 91.018C833.56 92.0447 759 124.352 759 130L751.5 167H1163L1156.5 131C1128.65 117.48 1049.4 90.1965 953.473 91.018ZM736.5 244.999C736.5 239.352 828.06 203.044 947.973 202.018C1043.9 201.196 1150.15 232.48 1178 245.999L1198 353.5H715L736.5 244.999ZM953.473 404.012C833.56 405.039 695 451.346 695 456.994L640 745.996H1270.5L1217.5 456.994C1189.65 443.474 1049.4 403.191 953.473 404.012ZM1327.9 35.9996C1241.37 35.9996 1192.86 46.5725 1175 51.859L1179.5 70.9996H1530L1519 51.9996C1496.22 46.7131 1414.43 35.9996 1327.9 35.9996ZM1192.5 130.5C1211.55 119.02 1265.29 93.9996 1357.57 93.9996C1449.86 93.9996 1539.97 119.958 1564.26 131.437L1585 167H1200.79L1192.5 130.5ZM1392.36 202C1300.2 202 1237.03 233.531 1218 243.5L1242 354H1692L1628.79 243.906C1604.53 233.937 1484.53 202 1392.36 202ZM1265 457C1284.03 447.031 1398.33 403 1490.5 403C1629.08 403 1709.95 439.06 1742.44 453.545C1746.05 455.157 1749.07 456.501 1751.5 457.5L1918 745H1328.5L1265 457ZM584.099 35.9996C670.628 35.9996 720.137 46.7131 738 51.9996L733.5 70.9996H387.5L398.749 51.859C421.529 46.5725 497.57 35.9996 584.099 35.9996ZM719 130.906C699.973 120.937 648.167 94.4996 556 94.4996C463.833 94.4996 377.764 120.531 353.5 130.5L332 167H710.716L719 130.906ZM519.136 204C611.304 204 674.973 233.937 694 243.906L668.5 354H223.5L288.5 243.5C312.764 233.531 426.969 204 519.136 204ZM642.414 455.633C619.638 443.552 543.184 403 416.636 403C292.503 403 200.587 441.577 169.995 454.416C168.09 455.215 166.422 455.915 165 456.5L-3 745.5H579.5L645 457C644.243 456.603 643.394 456.153 642.452 455.653L642.438 455.646L642.414 455.633ZM1547.5 50.4996L1559.5 70.9997H1887.5L1870 52.9996C1833.28 48.7399 1743.59 40.2211 1680.7 40.0036C1617.82 39.7861 1570.53 46.0586 1547.5 50.4996ZM372.5 52.4996L361.026 70.9996H29L46.5 52.9996C83.1162 48.7399 169.989 40.2211 232.703 40.0035C295.417 39.786 349.532 48.0586 372.5 52.4996Z" fill="#8655ED"/>
<path d="M951.545 4.01074L951.563 7.51069L951.545 4.01074ZM768.483 32.0966L767.135 28.8664L767.131 28.868L768.483 32.0966ZM1157 28.6714L1156.04 32.0367L1157.02 32.318L1158 32.0243L1157 28.6714ZM1527.86 27.9995L1527.06 31.4069L1527.79 31.5778L1528.52 31.4363L1527.86 27.9995ZM1686.06 14.0062L1686.07 10.5062L1686.06 14.0062ZM1915.16 32.852L1915.57 29.3757V29.3757L1915.16 32.852ZM1925 33.9996H1928.5V30.882L1925.4 30.5229L1925 33.9996ZM1761.5 94.4996V97.9996V94.4996ZM1596 130.499L1594.58 127.301L1590.99 128.895L1592.99 132.277L1596 130.499ZM1617.53 166.999L1614.51 168.777L1615.53 170.499H1617.53V166.999ZM1850.54 202.007L1850.56 198.507L1850.54 202.007ZM1667.15 242.907L1666.01 239.6V239.6L1667.15 242.907ZM1664 243.999L1662.86 240.691L1658.76 242.104L1661 245.81L1664 243.999ZM1730.5 353.999L1727.5 355.81L1728.52 357.484L1730.47 357.499L1730.5 353.999ZM1800.68 453.384L1802.32 456.475L1802.41 456.431L1802.49 456.383L1800.68 453.384ZM1800.68 453.385L1799.04 450.294L1798.94 450.345L1798.85 450.402L1800.68 453.385ZM1800.67 453.39L1802.44 456.409L1802.47 456.392L1802.5 456.373L1800.67 453.39ZM1800.66 453.396L1798.89 450.377L1798.87 450.387L1798.86 450.397L1800.66 453.396ZM1793.5 457.5L1792.06 454.309L1788.48 455.923L1790.5 459.299L1793.5 457.5ZM1920.5 669.5L1917.5 671.298L1918.38 672.768L1920.08 672.974L1920.5 669.5ZM1363.5 906.5H1360V906.897L1360.09 907.283L1363.5 906.5ZM1300 906L1303.45 905.389L1303.13 903.631L1301.53 902.851L1300 906ZM1289.19 900.359L1290.84 897.271L1290.79 897.249L1290.75 897.228L1289.19 900.359ZM1289.19 900.358L1287.54 903.446L1287.58 903.468L1287.62 903.489L1289.19 900.358ZM933.473 815.013V811.513V815.013ZM608 906.5L611.435 907.17L611.5 906.838V906.5H608ZM542 906.5L545.411 907.283L545.5 906.897V906.5H542ZM0.5 666L-0.640015 669.309L2.02835 670.228L3.49231 667.815L0.5 666ZM127 457.5L129.992 459.315L132.242 455.606L128.142 454.191L127 457.5ZM103.154 447.568L101.753 450.775L103.154 447.568ZM189 353.996L189.028 357.496L190.983 357.48L191.995 355.807L189 353.996ZM255.5 243.996L258.495 245.807L260.736 242.1L256.642 240.687L255.5 243.996ZM252.346 242.904L253.493 239.597V239.597L252.346 242.904ZM68.9642 202.003L68.9426 198.503L68.9642 202.003ZM302.772 167V170.5H304.767L305.783 168.783L302.772 167ZM323 132.846L326.011 134.63L327.72 131.745L324.912 129.914L323 132.846ZM320.8 131.373L318.593 134.089L318.712 134.185L318.838 134.271L320.8 131.373ZM320.799 131.372L323.007 128.656L322.888 128.559L322.761 128.474L320.799 131.372ZM-0.630219 123.32L-1.66223 119.976L-0.630219 123.32ZM-4 50.0428H-0.5V46.547L-3.99579 46.5428L-4 50.0428ZM-40 49.9996L-42.5184 47.569L-48.2328 53.4897L-40.0042 53.4996L-40 49.9996ZM-18.1441 27.3546L-18.5515 23.8784L-19.7938 24.024L-20.6625 24.924L-18.1441 27.3546ZM214.406 11.0049L214.394 7.50489L214.406 11.0049ZM376.77 28.725L376.087 32.1577V32.1577L376.77 28.725ZM384.324 30.2183L383.655 33.6538L384.385 33.7958L385.109 33.6293L384.324 30.2183ZM767.5 32.4996L766.515 35.8581L767.646 36.19L768.748 35.7694L767.5 32.4996ZM768.475 32.0996L767.181 28.8478L767.154 28.8585L767.127 28.8696L768.475 32.0996ZM768.479 32.0983L769.773 35.35L769.802 35.3387L769.83 35.3269L768.479 32.0983ZM-34.7221 132.846L-35.4338 129.419L-36.6025 129.662L-37.3794 130.568L-34.7221 132.846ZM-64 167L-66.6573 164.722L-71.6103 170.5H-64V167ZM-49.1106 219.697L-49.9775 216.306V216.306L-49.1106 219.697ZM-79.5 226.996L-80.2117 223.569L-81.3715 223.81L-82.1466 224.706L-79.5 226.996ZM-192 356.996L-194.647 354.706L-199.71 360.557L-191.972 360.496L-192 356.996ZM-52.0358 403.003L-52.0574 399.503L-52.0358 403.003ZM-170.111 420.697L-169.244 424.087L-170.111 420.697ZM-200.5 427.996L-201.212 424.569L-202.371 424.81L-203.147 425.705L-200.5 427.996ZM-313 557.996L-315.647 555.705L-319.033 559.619L-314.14 561.305L-313 557.996ZM-53 902L-55.6083 899.666L-56.5 900.662V902H-53ZM-53 1024H-56.5V1027.5H-53V1024ZM515 1024V1027.5H517.787L518.411 1024.78L515 1024ZM-4 1023H-7.5V1026.5H-4V1023ZM585 1024.5L581.565 1023.83L580.752 1028H585V1024.5ZM1321 1024.5V1028H1325.17L1324.45 1023.89L1321 1024.5ZM1390.5 1024L1387.09 1024.78L1387.71 1027.5H1390.5V1024ZM1958.5 1024V1027.5H1962V1024H1958.5ZM1958.5 902H1962V900.662L1961.11 899.666L1958.5 902ZM1925 1023V1026.5H1928.5V1023H1925ZM2324.5 718.5L2324.08 721.974L2331.84 722.916L2327.37 716.498L2324.5 718.5ZM2122 427.996L2124.87 425.995L2124.07 424.853L2122.71 424.569L2122 427.996ZM2091.61 420.697L2092.48 417.306L2091.61 420.697ZM1973.54 403.004L1973.56 399.504L1973.54 403.004ZM2111.5 357L2111.47 360.499L2119.21 360.56L2114.15 354.709L2111.5 357ZM1999 227L2001.65 224.709L2000.87 223.814L1999.71 223.573L1999 227ZM1968.61 219.7L1967.74 223.091V223.091L1968.61 219.7ZM1978 166.999V170.499H1985.96L1980.58 164.634L1978 166.999ZM1945 130.999L1947.58 128.634L1947.22 128.242L1946.76 127.974L1945 130.999ZM956.746 30.0095L956.728 26.5096L956.746 30.0095ZM772.5 54.9996L775.973 55.4337L776 55.2175V54.9996H772.5ZM1142.49 51.3354L1145.92 50.6363L1145.5 48.5497L1143.45 47.9684L1142.49 51.3354ZM1146.5 70.9996V74.4996H1150.79L1149.93 70.3005L1146.5 70.9996ZM770.5 70.9996L767.027 70.5655L766.535 74.4996H770.5V70.9996ZM759 130L762.43 130.695L762.5 130.351V130H759ZM953.473 91.018L953.443 87.5181L953.473 91.018ZM751.5 167L748.07 166.304L747.219 170.5H751.5V167ZM1163 167V170.5H1167.19L1166.44 166.378L1163 167ZM1156.5 131L1159.94 130.378L1159.63 128.627L1158.03 127.851L1156.5 131ZM947.973 202.018L947.943 198.518L947.973 202.018ZM736.5 244.999L739.933 245.68L740 245.343V244.999H736.5ZM1178 245.999L1181.44 245.359L1181.12 243.622L1179.53 242.851L1178 245.999ZM1198 353.5V357H1202.21L1201.44 352.859L1198 353.5ZM715 353.5L711.567 352.819L710.738 357H715V353.5ZM695 456.994L698.438 457.648L698.5 457.324V456.994H695ZM953.473 404.012L953.443 400.512L953.473 404.012ZM640 745.996L636.562 745.342L635.771 749.496H640V745.996ZM1270.5 745.996V749.496H1274.7L1273.94 745.365L1270.5 745.996ZM1217.5 456.994L1220.94 456.362L1220.62 454.619L1219.03 453.845L1217.5 456.994ZM1175 51.859L1174.01 48.5028L1170.84 49.4412L1171.59 52.66L1175 51.859ZM1179.5 70.9996L1176.09 71.8006L1176.73 74.4996H1179.5V70.9996ZM1530 70.9996V74.4996H1536.07L1533.03 69.246L1530 70.9996ZM1519 51.9996L1522.03 50.246L1521.27 48.9331L1519.79 48.5902L1519 51.9996ZM1192.5 130.5L1190.69 127.502L1188.53 128.808L1189.09 131.275L1192.5 130.5ZM1564.26 131.437L1567.29 129.674L1566.74 128.736L1565.76 128.273L1564.26 131.437ZM1585 167V170.5H1591.09L1588.02 165.237L1585 167ZM1200.79 167L1197.38 167.775L1198 170.5H1200.79V167ZM1218 243.5L1216.38 240.399L1214.01 241.637L1214.58 244.242L1218 243.5ZM1242 354L1238.58 354.742L1239.18 357.5H1242V354ZM1692 354V357.5H1698.05L1695.04 352.257L1692 354ZM1628.79 243.906L1631.82 242.163L1631.23 241.124L1630.12 240.668L1628.79 243.906ZM1265 457L1263.38 453.899L1261.01 455.141L1261.58 457.753L1265 457ZM1742.44 453.545L1743.87 450.349V450.348L1742.44 453.545ZM1751.5 457.5L1754.53 455.746L1753.93 454.715L1752.83 454.262L1751.5 457.5ZM1918 745V748.5H1924.07L1921.03 743.246L1918 745ZM1328.5 745L1325.08 745.753L1325.69 748.5H1328.5V745ZM738 51.9996L741.406 52.8062L742.169 49.5833L738.993 48.6435L738 51.9996ZM733.5 70.9996V74.4996H736.268L736.906 71.8062L733.5 70.9996ZM387.5 70.9996L384.483 69.2262L381.383 74.4996H387.5V70.9996ZM398.749 51.859L397.958 48.4496L396.494 48.7894L395.732 50.0855L398.749 51.859ZM719 130.906L722.411 131.689L723.015 129.058L720.624 127.806L719 130.906ZM353.5 130.5L352.17 127.262L351.081 127.709L350.484 128.723L353.5 130.5ZM332 167L328.984 165.223L325.876 170.5H332V167ZM710.716 167V170.5H713.504L714.127 167.783L710.716 167ZM694 243.906L697.41 244.696L698.02 242.061L695.624 240.806L694 243.906ZM668.5 354V357.5H671.282L671.91 354.789L668.5 354ZM223.5 354L220.483 352.225L217.381 357.5H223.5V354ZM288.5 243.5L287.17 240.262L286.08 240.71L285.483 241.725L288.5 243.5ZM642.414 455.633L640.774 458.725L640.775 458.725L642.414 455.633ZM169.995 454.416L168.64 451.189L169.995 454.416ZM165 456.5L163.67 453.262L162.571 453.714L161.974 454.741L165 456.5ZM-3 745.5L-6.02588 743.741L-9.08301 749H-3V745.5ZM579.5 745.5V749H582.294L582.913 746.274L579.5 745.5ZM645 457L648.413 457.774L649.009 455.149L646.624 453.899L645 457ZM642.452 455.653L644.092 452.561L644.082 452.556L642.452 455.653ZM642.438 455.646L640.799 458.738L640.808 458.743L642.438 455.646ZM1559.5 70.9997L1556.48 72.7678L1557.49 74.4997H1559.5V70.9997ZM1547.5 50.4996L1546.84 47.0629L1541.98 47.9993L1544.48 52.2677L1547.5 50.4996ZM1887.5 70.9997V74.4997H1895.78L1890.01 68.5599L1887.5 70.9997ZM1870 52.9996L1872.51 50.5598L1871.64 49.6665L1870.4 49.5229L1870 52.9996ZM1680.7 40.0036L1680.71 36.5036L1680.7 40.0036ZM361.026 70.9996V74.4996H362.974L364 72.8443L361.026 70.9996ZM372.5 52.4996L375.474 54.3443L378.152 50.0275L373.164 49.0632L372.5 52.4996ZM29 70.9996L26.4905 68.5598L20.7157 74.4996H29V70.9996ZM46.5 52.9996L46.0956 49.523L44.8586 49.6669L43.9905 50.5598L46.5 52.9996ZM951.527 0.510781C833.855 1.10389 776.271 25.0549 767.135 28.8664L769.83 35.3268C778.239 31.8187 834.921 8.09861 951.563 7.51069L951.527 0.510781ZM1157.96 25.3061C1129.05 17.0446 1050.54 0.0117259 951.527 0.510781L951.563 7.51069C1049.83 7.01539 1127.67 23.9328 1156.04 32.0367L1157.96 25.3061ZM1325.41 7.49958C1229.83 7.49958 1176.05 19.3129 1156 25.3184L1158 32.0243C1177.29 26.2486 1230.38 14.4996 1325.41 14.4996V7.49958ZM1528.66 24.5922C1503.24 18.6232 1420.9 7.49958 1325.41 7.49958V14.4996C1420.53 14.4996 1502.3 25.5945 1527.06 31.4069L1528.66 24.5922ZM1686.07 10.5062C1610.69 10.2456 1554.85 19.2325 1527.2 24.5628L1528.52 31.4363C1555.87 26.1661 1611.24 17.2475 1686.05 17.5061L1686.07 10.5062ZM1915.57 29.3757C1865.7 23.543 1756.36 10.7492 1686.07 10.5062L1686.05 17.5061C1755.85 17.7474 1864.75 30.4795 1914.76 36.3283L1915.57 29.3757ZM1925.4 30.5229C1922.46 30.1814 1919.17 29.7966 1915.57 29.3757L1914.76 36.3283C1918.35 36.7491 1921.65 37.1343 1924.6 37.4763L1925.4 30.5229ZM1928.5 49.9996V33.9996H1921.5V49.9996H1928.5ZM1928.5 120.526V49.9996H1921.5V120.526H1928.5ZM1926.45 117.339C1899.15 104.938 1851.78 90.9997 1761.5 90.9996V97.9996C1851.04 97.9997 1897.37 111.82 1923.55 123.712L1926.45 117.339ZM1761.5 90.9996C1693.89 90.9995 1619.35 116.301 1594.58 127.301L1597.42 133.698C1621.69 122.923 1695.22 97.9995 1761.5 97.9996V90.9996ZM1592.99 132.277L1614.51 168.777L1620.54 165.221L1599.01 128.721L1592.99 132.277ZM1617.53 170.499H1925V163.499H1617.53V170.499ZM1928.5 209.514V166.999H1921.5V209.514H1928.5ZM1925.67 206.079C1904.07 201.866 1879.58 198.687 1850.56 198.507L1850.51 205.507C1879.03 205.683 1903.08 208.805 1924.33 212.949L1925.67 206.079ZM1850.56 198.507C1817.95 198.305 1778.9 206.144 1744.6 215.198C1710.23 224.267 1680.34 234.63 1666.01 239.6L1668.3 246.214C1682.62 241.249 1712.29 230.963 1746.38 221.966C1780.53 212.954 1818.85 205.311 1850.51 205.507L1850.56 198.507ZM1666.01 239.6C1664.85 240.001 1663.8 240.365 1662.86 240.691L1665.14 247.308C1666.09 246.98 1667.15 246.614 1668.3 246.214L1666.01 239.6ZM1661 245.81L1727.5 355.81L1733.5 352.189L1667 242.189L1661 245.81ZM1730.47 357.499L1924.97 359.031L1925.03 352.031L1730.53 350.499L1730.47 357.499ZM1928.5 406.579V355.531H1921.5V406.579H1928.5ZM1924.47 403.12C1861.17 412.887 1816.55 439.748 1798.88 450.385L1802.49 456.383C1819.98 445.855 1863.63 419.589 1925.53 410.039L1924.47 403.12ZM1799.04 450.293L1799.04 450.294L1802.32 456.476L1802.32 456.475L1799.04 450.293ZM1798.85 450.402L1798.84 450.407L1802.5 456.373L1802.51 456.368L1798.85 450.402ZM1798.9 450.371L1798.89 450.377L1802.43 456.415L1802.44 456.409L1798.9 450.371ZM1798.86 450.397C1795.33 452.518 1793.17 453.811 1792.06 454.309L1794.94 460.692C1796.53 459.975 1799.18 458.372 1802.47 456.395L1798.86 450.397ZM1790.5 459.299L1917.5 671.298L1923.5 667.701L1796.5 455.702L1790.5 459.299ZM1920.08 672.974L1924.58 673.52L1925.42 666.571L1920.92 666.025L1920.08 672.974ZM1928.5 874.242V670.045H1921.5V874.242H1928.5ZM1926.9 871.304C1886.64 845.223 1807.26 811.5 1664.5 811.5V818.5C1806.11 818.5 1884.13 851.936 1923.1 877.179L1926.9 871.304ZM1664.5 811.5C1562.26 811.5 1486.52 832.729 1436.27 854.923C1411.16 866.016 1392.39 877.355 1379.86 886.413C1373.6 890.938 1368.86 894.921 1365.65 898.05C1364.05 899.607 1362.77 901.007 1361.86 902.199C1361.41 902.791 1361 903.399 1360.68 904.001C1360.42 904.506 1360 905.416 1360 906.5H1367C1367 907.145 1366.77 907.466 1366.89 907.241C1366.96 907.113 1367.12 906.85 1367.43 906.438C1368.05 905.623 1369.06 904.49 1370.53 903.067C1373.44 900.234 1377.9 896.468 1383.96 892.086C1396.07 883.332 1414.41 872.233 1439.1 861.326C1488.48 839.52 1563.24 818.5 1664.5 818.5V811.5ZM1360.09 907.283L1386.86 1023.78L1393.68 1022.22L1366.91 905.716L1360.09 907.283ZM1320.73 1026.5H1390.27V1019.5H1320.73V1026.5ZM1324.18 1022.39L1303.45 905.389L1296.55 906.61L1317.29 1023.61L1324.18 1022.39ZM1301.53 902.851C1298.89 901.57 1295.36 899.685 1290.84 897.271L1287.54 903.446C1292.01 905.832 1295.68 907.795 1298.47 909.148L1301.53 902.851ZM1290.75 897.228L1290.75 897.228L1287.62 903.489L1287.62 903.489L1290.75 897.228ZM1290.83 897.271C1248.95 874.911 1130.13 811.513 933.473 811.513V818.513C1128.49 818.513 1246.11 881.332 1287.54 903.446L1290.83 897.271ZM933.473 811.513C824.516 811.512 742.699 833.067 688.048 855.399C660.728 866.562 640.188 877.923 626.432 886.891C619.56 891.371 614.348 895.276 610.817 898.283C609.059 899.78 607.662 901.101 606.674 902.197C606.185 902.738 605.731 903.295 605.378 903.842C605.141 904.208 604.5 905.218 604.5 906.5H611.5C611.5 907.429 611.071 907.93 611.258 907.64C611.328 907.531 611.51 907.285 611.869 906.887C612.576 906.105 613.722 905.003 615.355 903.612C618.605 900.844 623.565 897.116 630.255 892.755C643.623 884.039 663.768 872.881 690.696 861.879C744.537 839.878 825.457 818.512 933.473 818.513V811.513ZM604.565 905.831L581.857 1022.33L588.728 1023.67L611.435 907.17L604.565 905.831ZM515.23 1026.5H585.292V1019.5H515.23V1026.5ZM518.641 1023.78L545.411 907.283L538.589 905.716L511.819 1022.22L518.641 1023.78ZM545.5 906.5C545.5 905.416 545.08 904.506 544.817 904.001C544.502 903.399 544.091 902.791 543.64 902.199C542.733 901.007 541.454 899.607 539.854 898.05C536.638 894.921 531.895 890.938 525.636 886.413C513.106 877.355 494.344 866.016 469.227 854.923C418.976 832.729 343.245 811.5 241 811.5V818.5C342.255 818.5 417.024 839.52 466.398 861.326C491.094 872.233 509.425 883.332 521.535 892.086C527.597 896.468 532.061 900.234 534.972 903.067C536.435 904.49 537.45 905.623 538.07 906.438C538.383 906.85 538.545 907.113 538.612 907.241C538.729 907.466 538.5 907.145 538.5 906.5H545.5ZM241 811.5C114.907 811.5 38.247 837.81 -5.68469 861.935L-2.31531 868.07C40.4368 844.593 115.905 818.5 241 818.5V811.5ZM-7.5 664.449V865.002H-0.5V664.449H-7.5ZM1.64001 662.69L-2.85999 661.14L-5.14001 667.758L-0.640015 669.309L1.64001 662.69ZM124.008 455.684L-2.49231 664.184L3.49231 667.815L129.992 459.315L124.008 455.684ZM101.753 450.775C112.013 455.257 120.406 458.926 125.858 460.808L128.142 454.191C123.023 452.424 114.955 448.903 104.555 444.36L101.753 450.775ZM-4.78464 412.446C34.8688 421.568 75.109 439.136 101.753 450.775L104.555 444.36C77.9917 432.757 37.1718 414.915 -3.21536 405.624L-4.78464 412.446ZM-7.5 355.516V409.035H-0.5V355.516H-7.5ZM-3.97244 359.016L189.028 357.496L188.972 350.496L-4.02756 352.016L-3.97244 359.016ZM191.995 355.807L258.495 245.807L252.505 242.185L186.005 352.185L191.995 355.807ZM256.642 240.687C255.697 240.361 254.647 239.997 253.493 239.597L251.2 246.211C252.352 246.61 253.408 246.976 254.358 247.304L256.642 240.687ZM253.493 239.597C239.156 234.626 209.272 224.264 174.905 215.194C140.597 206.141 101.553 198.301 68.9426 198.503L68.9859 205.503C100.649 205.307 138.968 212.951 173.119 221.963C207.21 230.959 236.88 241.246 251.2 246.211L253.493 239.597ZM68.9426 198.503C40.5966 198.679 16.5735 201.717 -4.65839 205.783L-3.34161 212.658C17.5432 208.658 41.1355 205.676 68.9859 205.503L68.9426 198.503ZM-7.5 167V209.221H-0.5V167H-7.5ZM-4 170.5H302.772V163.5H-4V170.5ZM305.783 168.783L326.011 134.63L319.989 131.062L299.76 165.216L305.783 168.783ZM324.912 129.914C324.317 129.526 323.613 129.05 322.761 128.474L318.838 134.271C319.673 134.836 320.433 135.35 321.088 135.778L324.912 129.914ZM323.007 128.656L323.007 128.656L318.592 134.089L318.593 134.089L323.007 128.656ZM322.761 128.474C309.028 119.18 267.187 90.9996 176.5 90.9996V97.9996C265.438 97.9996 305.934 125.538 318.838 134.271L322.761 128.474ZM176.5 90.9996C92.237 90.9996 37.0647 108.025 -1.66223 119.976L0.401794 126.664C38.9265 114.777 93.298 97.9996 176.5 97.9996V90.9996ZM-1.66223 119.976C-2.79953 120.327 -3.92175 120.673 -5.03018 121.014L-2.96982 127.704C-1.85925 127.362 -0.735199 127.015 0.401794 126.664L-1.66223 119.976ZM-7.5 50.0428V124.359H-0.5V50.0428H-7.5ZM-40.0042 53.4996L-4.00421 53.5428L-3.99579 46.5428L-39.9958 46.4996L-40.0042 53.4996ZM-20.6625 24.924L-42.5184 47.569L-37.4816 52.4302L-15.6257 29.7852L-20.6625 24.924ZM214.394 7.50489C135.864 7.77926 27.2062 18.5162 -18.5515 23.8784L-17.7368 30.8308C27.9662 25.4751 136.301 14.7778 214.418 14.5048L214.394 7.50489ZM377.453 25.2923C346.096 19.053 286.806 7.2519 214.394 7.50489L214.418 14.5048C286.088 14.2544 344.799 25.9321 376.087 32.1577L377.453 25.2923ZM384.994 26.7829C382.701 26.3363 380.187 25.8362 377.453 25.2923L376.087 32.1577C378.817 32.7009 381.346 33.204 383.655 33.6538L384.994 26.7829ZM587.389 9.49958C492.391 9.49958 408.811 20.9956 383.54 26.8074L385.109 33.6293C409.752 27.9619 492.789 16.4996 587.389 16.4996V9.49958ZM768.485 29.141C748.559 23.2971 682.483 9.49958 587.389 9.49958V16.4996C681.895 16.4996 747.301 30.2229 766.515 35.8581L768.485 29.141ZM767.127 28.8696C766.642 29.072 766.383 29.1797 766.252 29.2297L768.748 35.7694C769.007 35.6707 769.396 35.5078 769.823 35.3296L767.127 28.8696ZM767.184 28.8465L767.181 28.8478L769.77 35.3513L769.773 35.35L767.184 28.8465ZM767.131 28.868L767.127 28.8697L769.83 35.3269L769.834 35.3252L767.131 28.868ZM-5.03018 121.014C-16.6688 124.599 -26.6283 127.59 -35.4338 129.419L-34.0104 136.273C-24.8294 134.366 -14.5574 131.273 -2.96982 127.704L-5.03018 121.014ZM-37.3794 130.568L-66.6573 164.722L-61.3427 169.277L-32.0649 135.124L-37.3794 130.568ZM-64 170.5H-4V163.5H-64V170.5ZM-7.5 124.359V167H-0.5V124.359H-7.5ZM-4.65839 205.783C-21.251 208.961 -36.1395 212.768 -49.9775 216.306L-48.2437 223.088C-34.3893 219.546 -19.6958 215.79 -3.34161 212.658L-4.65839 205.783ZM-49.9775 216.306C-60.5643 219.013 -70.5057 221.554 -80.2117 223.569L-78.7883 230.423C-68.8983 228.369 -58.7989 225.786 -48.2437 223.088L-49.9775 216.306ZM-82.1466 224.706L-194.647 354.706L-189.353 359.286L-76.8534 229.286L-82.1466 224.706ZM-191.972 360.496L-3.97244 359.016L-4.02756 352.016L-192.028 353.496L-191.972 360.496ZM-7.5 209.221V355.516H-0.5V209.221H-7.5ZM-52.0141 406.503C-37.1093 406.41 -21.0477 408.705 -4.78464 412.446L-3.21536 405.624C-19.8141 401.806 -36.4424 399.406 -52.0574 399.503L-52.0141 406.503ZM-169.244 424.087C-137.732 416.031 -101.635 406.81 -52.0141 406.503L-52.0574 399.503C-102.593 399.816 -139.397 409.232 -170.977 417.306L-169.244 424.087ZM-199.788 431.423C-189.898 429.369 -179.799 426.786 -169.244 424.087L-170.977 417.306C-181.564 420.012 -191.506 422.553 -201.212 424.569L-199.788 431.423ZM-310.353 560.286L-197.853 430.286L-203.147 425.705L-315.647 555.705L-310.353 560.286ZM-2.85999 661.14L-311.86 554.687L-314.14 561.305L-5.14001 667.758L-2.85999 661.14ZM-7.5 409.035V664.449H-0.5V409.035H-7.5ZM-5.68469 861.935C-37.3264 879.31 -51.8709 895.489 -55.6083 899.666L-50.3917 904.333C-47.0138 900.558 -33.071 884.96 -2.31531 868.07L-5.68469 861.935ZM-56.5 902V1024H-49.5V902H-56.5ZM-53 1027.5H515V1020.5H-53V1027.5ZM518.411 1024.78L518.641 1023.78L511.819 1022.22L511.589 1023.22L518.411 1024.78ZM-4 1026.5H515.23V1019.5H-4V1026.5ZM-7.5 865.002V1023H-0.5V865.002H-7.5ZM581.857 1022.33L581.565 1023.83L588.435 1025.17L588.728 1023.67L581.857 1022.33ZM585 1028H1321V1021H585V1028ZM1324.45 1023.89L1324.18 1022.39L1317.29 1023.61L1317.55 1025.11L1324.45 1023.89ZM585.292 1026.5H1320.73V1019.5H585.292V1026.5ZM1386.86 1023.78L1387.09 1024.78L1393.91 1023.22L1393.68 1022.22L1386.86 1023.78ZM1390.5 1027.5H1958.5V1020.5H1390.5V1027.5ZM1962 1024V902H1955V1024H1962ZM1961.11 899.666C1958.07 896.271 1947.81 884.848 1926.9 871.304L1923.1 877.179C1943.32 890.281 1953.12 901.235 1955.89 904.333L1961.11 899.666ZM1928.5 1023V874.242H1921.5V1023H1928.5ZM1390.27 1026.5H1925V1019.5H1390.27V1026.5ZM1924.58 673.52L2324.08 721.974L2324.92 715.025L1925.42 666.571L1924.58 673.52ZM2327.37 716.498L2124.87 425.995L2119.13 429.998L2321.63 720.501L2327.37 716.498ZM2122.71 424.569C2113.01 422.554 2103.06 420.013 2092.48 417.306L2090.74 424.088C2101.3 426.787 2111.4 429.369 2121.29 431.423L2122.71 424.569ZM2092.48 417.306C2060.9 409.233 2024.09 399.817 1973.56 399.504L1973.51 406.503C2023.14 406.811 2059.23 416.032 2090.74 424.088L2092.48 417.306ZM1973.56 399.504C1956.18 399.396 1939.78 400.758 1924.47 403.12L1925.53 410.039C1940.5 407.73 1956.53 406.398 1973.51 406.503L1973.56 399.504ZM1928.5 670.045V406.579H1921.5V670.045H1928.5ZM1924.97 359.031L2111.47 360.499L2111.53 353.5L1925.03 352.031L1924.97 359.031ZM2114.15 354.709L2001.65 224.709L1996.35 229.29L2108.85 359.29L2114.15 354.709ZM1999.71 223.573C1990.01 221.557 1980.06 219.016 1969.48 216.309L1967.74 223.091C1978.3 225.79 1988.4 228.373 1998.29 230.426L1999.71 223.573ZM1969.48 216.31C1956.06 212.879 1941.66 209.196 1925.67 206.079L1924.33 212.949C1940.09 216.023 1954.31 219.657 1967.74 223.091L1969.48 216.31ZM1928.5 355.531V209.514H1921.5V355.531H1928.5ZM1925 170.499H1978V163.499H1925V170.499ZM1980.58 164.634L1947.58 128.634L1942.42 133.364L1975.42 169.364L1980.58 164.634ZM1946.76 127.974C1941.57 124.96 1935.03 121.237 1926.45 117.339L1923.55 123.712C1931.82 127.466 1938.13 131.051 1943.24 134.025L1946.76 127.974ZM1928.5 166.999V120.526H1921.5V166.999H1928.5ZM956.728 26.5096C901.19 26.7876 854.927 32.2945 822.511 38.1251C806.308 41.0397 793.536 44.0403 784.776 46.5198C780.407 47.7564 776.977 48.8799 774.596 49.8172C773.424 50.2788 772.397 50.7373 771.614 51.1857C771.238 51.4014 770.774 51.6949 770.359 52.0731C770.149 52.2637 769.857 52.5603 769.599 52.9681C769.346 53.3668 769 54.0694 769 54.9996H776C776 55.8345 775.69 56.433 775.509 56.7189C775.322 57.0138 775.137 57.189 775.071 57.2497C774.94 57.3683 774.903 57.3687 775.093 57.2603C775.442 57.0603 776.105 56.7463 777.161 56.3305C779.238 55.5126 782.422 54.461 786.682 53.2552C795.18 50.85 807.724 47.8974 823.751 45.0145C855.797 39.2502 901.657 33.7854 956.763 33.5095L956.728 26.5096ZM1143.45 47.9684C1117.44 40.5885 1045.58 26.0647 956.728 26.5096L956.763 33.5095C1044.94 33.0681 1116.14 47.4957 1141.54 54.7024L1143.45 47.9684ZM1149.93 70.3005L1145.92 50.6363L1139.06 52.0345L1143.07 71.6987L1149.93 70.3005ZM770.5 74.4996H1146.5V67.4996H770.5V74.4996ZM769.027 54.5655L767.027 70.5655L773.973 71.4337L775.973 55.4337L769.027 54.5655ZM762.5 130C762.5 130.755 762.206 131.216 762.168 131.277C762.107 131.371 762.11 131.339 762.278 131.179C762.613 130.861 763.252 130.366 764.298 129.71C766.362 128.415 769.566 126.766 773.915 124.882C782.584 121.127 795.48 116.581 812.166 112.159C845.521 103.321 893.849 95.0286 953.503 94.5178L953.443 87.5181C893.184 88.0341 844.275 96.4093 810.373 105.393C793.428 109.883 780.19 114.536 771.133 118.459C766.618 120.414 763.06 122.224 760.578 123.78C759.351 124.55 758.271 125.33 757.455 126.106C757.048 126.493 756.617 126.963 756.267 127.511C755.939 128.025 755.5 128.891 755.5 130H762.5ZM754.93 167.695L762.43 130.695L755.57 129.304L748.07 166.304L754.93 167.695ZM1163 163.5H751.5V170.5H1163V163.5ZM1153.06 131.621L1159.56 167.621L1166.44 166.378L1159.94 130.378L1153.06 131.621ZM953.503 94.5178C1048.84 93.7015 1127.55 120.838 1154.97 134.148L1158.03 127.851C1129.74 114.122 1049.97 86.6916 953.443 87.5181L953.503 94.5178ZM947.943 198.518C887.654 199.034 834.496 208.417 796.383 218.39C777.329 223.375 761.992 228.519 751.372 232.799C746.075 234.934 741.877 236.883 738.957 238.52C737.512 239.33 736.265 240.128 735.333 240.895C734.872 241.275 734.379 241.735 733.973 242.273C733.619 242.742 733 243.699 733 244.999H740C740 245.946 739.56 246.49 739.56 246.491C739.507 246.56 739.543 246.496 739.783 246.299C740.25 245.914 741.087 245.351 742.38 244.626C744.935 243.193 748.828 241.371 753.988 239.292C764.282 235.143 779.33 230.087 798.155 225.162C835.8 215.312 888.379 206.028 948.003 205.518L947.943 198.518ZM1179.53 242.851C1165.24 235.916 1131.41 224.645 1089.28 215.215C1047.09 205.771 996.263 198.104 947.943 198.518L948.003 205.518C995.614 205.11 1045.88 212.674 1087.75 222.046C1129.69 231.433 1162.91 242.563 1176.47 249.148L1179.53 242.851ZM1201.44 352.859L1181.44 245.359L1174.56 246.639L1194.56 354.14L1201.44 352.859ZM715 357H1198V350H715V357ZM733.067 244.319L711.567 352.819L718.433 354.18L739.933 245.68L733.067 244.319ZM698.5 456.994C698.5 457.79 698.204 458.337 698.073 458.548C697.996 458.671 697.928 458.756 697.888 458.803C697.847 458.851 697.82 458.877 697.815 458.882C697.81 458.887 697.852 458.847 697.967 458.763C698.077 458.682 698.23 458.578 698.434 458.451C699.281 457.924 700.663 457.211 702.623 456.33C706.512 454.582 712.283 452.344 719.67 449.784C734.422 444.671 755.388 438.35 780.118 432.165C829.606 419.79 893.929 408.022 953.503 407.512L953.443 400.512C893.104 401.029 828.19 412.928 778.42 425.375C753.521 431.601 732.353 437.98 717.377 443.17C709.9 445.762 703.91 448.076 699.753 449.945C697.69 450.873 695.978 451.735 694.736 452.507C694.129 452.885 693.503 453.321 692.987 453.814C692.728 454.06 692.406 454.406 692.129 454.85C691.864 455.277 691.5 456.021 691.5 456.994H698.5ZM643.438 746.65L698.438 457.648L691.562 456.339L636.562 745.342L643.438 746.65ZM1270.5 742.496H640V749.496H1270.5V742.496ZM1214.06 457.625L1267.06 746.627L1273.94 745.365L1220.94 456.362L1214.06 457.625ZM953.503 407.512C1001.06 407.105 1059.79 416.899 1110.23 428.535C1160.74 440.189 1202.43 453.569 1215.97 460.142L1219.03 453.845C1204.72 446.899 1162.36 433.378 1111.8 421.715C1061.17 410.034 1001.82 400.098 953.443 400.512L953.503 407.512ZM1175.99 55.2151C1193.48 50.0411 1241.64 39.4996 1327.9 39.4996V32.4996C1241.1 32.4996 1192.25 43.1039 1174.01 48.5028L1175.99 55.2151ZM1182.91 70.1986L1178.41 51.0579L1171.59 52.66L1176.09 71.8006L1182.91 70.1986ZM1530 67.4996H1179.5V74.4996H1530V67.4996ZM1515.97 53.7532L1526.97 72.7532L1533.03 69.246L1522.03 50.246L1515.97 53.7532ZM1327.9 39.4996C1414.25 39.4996 1495.76 50.1989 1518.21 55.409L1519.79 48.5902C1496.68 43.2273 1414.61 32.4996 1327.9 32.4996V39.4996ZM1357.57 90.4996C1264.64 90.4996 1210.28 115.701 1190.69 127.502L1194.31 133.497C1212.82 122.339 1265.94 97.4996 1357.57 97.4996V90.4996ZM1565.76 128.273C1553.25 122.364 1524.35 112.938 1487.15 104.991C1449.87 97.0297 1404.02 90.4996 1357.57 90.4996V97.4996C1403.41 97.4996 1448.76 103.949 1485.68 111.836C1522.68 119.739 1550.98 129.031 1562.77 134.602L1565.76 128.273ZM1588.02 165.237L1567.29 129.674L1561.24 133.2L1581.98 168.763L1588.02 165.237ZM1200.79 170.5H1585V163.5H1200.79V170.5ZM1189.09 131.275L1197.38 167.775L1204.21 166.224L1195.91 129.724L1189.09 131.275ZM1219.62 246.6C1238.42 236.752 1301 205.5 1392.36 205.5V198.5C1299.39 198.5 1235.63 230.31 1216.38 240.399L1219.62 246.6ZM1245.42 353.257L1221.42 242.757L1214.58 244.242L1238.58 354.742L1245.42 353.257ZM1692 350.5H1242V357.5H1692V350.5ZM1625.75 245.649L1688.96 355.742L1695.04 352.257L1631.82 242.163L1625.75 245.649ZM1392.36 205.5C1438.1 205.5 1490.88 213.433 1535.33 222.642C1579.83 231.862 1615.64 242.287 1627.46 247.143L1630.12 240.668C1617.68 235.556 1581.35 225.028 1536.75 215.787C1492.09 206.535 1438.79 198.5 1392.36 198.5V205.5ZM1490.5 399.5C1443.94 399.5 1391.96 410.607 1349.35 422.898C1306.78 435.181 1273.19 448.758 1263.38 453.899L1266.62 460.1C1275.84 455.272 1308.92 441.849 1351.29 429.624C1393.64 417.408 1444.89 406.5 1490.5 406.5V399.5ZM1743.87 450.348C1711.15 435.76 1629.76 399.5 1490.5 399.5V406.5C1628.4 406.5 1708.76 442.36 1741.02 456.742L1743.87 450.348ZM1752.83 454.262C1750.46 453.288 1747.5 451.968 1743.87 450.349L1741.02 456.742C1744.61 458.346 1747.68 459.715 1750.17 460.737L1752.83 454.262ZM1921.03 743.246L1754.53 455.746L1748.47 459.254L1914.97 746.754L1921.03 743.246ZM1328.5 748.5H1918V741.5H1328.5V748.5ZM1261.58 457.753L1325.08 745.753L1331.92 744.246L1268.42 456.246L1261.58 457.753ZM738.993 48.6435C720.75 43.2446 670.899 32.4996 584.099 32.4996V39.4996C670.357 39.4996 719.523 50.1816 737.007 55.3557L738.993 48.6435ZM736.906 71.8062L741.406 52.8062L734.594 51.1929L730.094 70.1929L736.906 71.8062ZM387.5 74.4996H733.5V67.4996H387.5V74.4996ZM395.732 50.0855L384.483 69.2262L390.517 72.773L401.767 53.6324L395.732 50.0855ZM584.099 32.4996C497.369 32.4996 421.054 43.0896 397.958 48.4496L399.54 55.2683C422.004 50.0553 497.77 39.4996 584.099 39.4996V32.4996ZM556 97.9996C647.412 97.9996 698.649 124.195 717.376 134.006L720.624 127.806C701.297 117.679 648.923 90.9996 556 90.9996V97.9996ZM354.83 133.737C378.749 123.91 464.366 97.9996 556 97.9996V90.9996C463.3 90.9996 376.778 117.152 352.17 127.262L354.83 133.737ZM335.016 168.776L356.516 132.276L350.484 128.723L328.984 165.223L335.016 168.776ZM710.716 163.5H332V170.5H710.716V163.5ZM715.589 130.123L707.305 166.217L714.127 167.783L722.411 131.689L715.589 130.123ZM695.624 240.806C676.298 230.68 612.06 200.5 519.136 200.5V207.5C610.547 207.5 673.648 237.194 692.376 247.006L695.624 240.806ZM671.91 354.789L697.41 244.696L690.59 243.116L665.09 353.21L671.91 354.789ZM223.5 357.5H668.5V350.5H223.5V357.5ZM285.483 241.725L220.483 352.225L226.517 355.774L291.517 245.274L285.483 241.725ZM519.136 200.5C472.73 200.5 420.885 207.928 377.667 216.579C334.512 225.218 299.625 235.145 287.17 240.262L289.83 246.737C301.639 241.885 335.986 232.062 379.041 223.443C422.034 214.837 473.376 207.5 519.136 207.5V200.5ZM416.636 406.5C542.376 406.5 618.242 446.774 640.774 458.725L644.054 452.541C621.033 440.33 543.992 399.5 416.636 399.5V406.5ZM171.349 457.643C201.821 444.854 293.215 406.5 416.636 406.5V399.5C291.792 399.5 199.352 438.299 168.64 451.189L171.349 457.643ZM166.33 459.737C167.767 459.146 169.448 458.441 171.349 457.643L168.64 451.189C166.731 451.99 165.078 452.684 163.67 453.262L166.33 459.737ZM0.0258789 747.259L168.026 458.259L161.974 454.741L-6.02588 743.741L0.0258789 747.259ZM579.5 742H-3V749H579.5V742ZM641.587 456.225L576.087 744.725L582.913 746.274L648.413 457.774L641.587 456.225ZM640.812 458.745C641.752 459.243 642.609 459.698 643.376 460.1L646.624 453.899C645.877 453.508 645.036 453.062 644.092 452.561L640.812 458.745ZM640.808 458.743L640.822 458.75L644.082 452.556L644.068 452.549L640.808 458.743ZM640.775 458.725L640.799 458.738L644.078 452.553L644.053 452.54L640.775 458.725ZM1562.52 69.2316L1550.52 48.7315L1544.48 52.2677L1556.48 72.7678L1562.52 69.2316ZM1887.5 67.4997H1559.5V74.4997H1887.5V67.4997ZM1867.49 55.4394L1884.99 73.4394L1890.01 68.5599L1872.51 50.5598L1867.49 55.4394ZM1680.69 43.5036C1743.38 43.7204 1832.92 52.2207 1869.6 56.4763L1870.4 49.5229C1833.65 45.259 1743.8 36.7219 1680.71 36.5036L1680.69 43.5036ZM1548.16 53.9363C1570.97 49.539 1618.03 43.2869 1680.69 43.5036L1680.71 36.5036C1617.61 36.2854 1570.1 42.5783 1546.84 47.0629L1548.16 53.9363ZM364 72.8443L375.474 54.3443L369.526 50.6548L358.052 69.1549L364 72.8443ZM29 74.4996H361.026V67.4996H29V74.4996ZM43.9905 50.5598L26.4905 68.5598L31.5095 73.4394L49.0095 55.4394L43.9905 50.5598ZM232.691 36.5036C169.772 36.7218 82.739 45.2602 46.0956 49.523L46.9044 56.4761C83.4935 52.2196 170.206 43.7203 232.715 43.5035L232.691 36.5036ZM373.164 49.0632C350.037 44.5914 295.688 36.2851 232.691 36.5036L232.715 43.5035C295.145 43.287 349.027 51.5258 371.836 55.9359L373.164 49.0632Z" fill="black"/>
<path d="M519.5 1019.5L582.5 1019L583 1197.5H519.5V1019.5Z" fill="#8655ED"/>
<path d="M607.5 1140V905L586 1019V1196.5L607.5 1140Z" fill="white" stroke="black" stroke-width="7"/>
<path d="M1385 1018.5L1322 1018L1321.5 1196.5H1385V1018.5Z" fill="#8655ED"/>
<path d="M1297 1139V904L1318.5 1018V1195.5L1297 1139Z" fill="white" stroke="black" stroke-width="7"/>
</svg>
