<svg width="1920" height="2875" viewBox="0 0 1920 2875" fill="none" xmlns="http://www.w3.org/2000/svg">
<path d="M1264.5 1074L1267.01 1106.99L1300 1109.5L1267.01 1112.01L1264.5 1145L1261.99 1112.01L1229 1109.5L1261.99 1106.99L1264.5 1074Z" fill="white"/>
<path d="M1212.5 102L1215.01 134.99L1248 137.5L1215.01 140.01L1212.5 173L1209.99 140.01L1177 137.5L1209.99 134.99L1212.5 102Z" fill="white"/>
<path d="M1876 0L1879.61 47.3938L1927 51L1879.61 54.6062L1876 102L1872.39 54.6062L1825 51L1872.39 47.3938L1876 0Z" fill="white"/>
<path d="M807.5 2796L810.293 2832.71L847 2835.5L810.293 2838.29L807.5 2875L804.707 2838.29L768 2835.5L804.707 2832.71L807.5 2796Z" fill="white"/>
<path d="M1484 372L1486.19 400.808L1515 403L1486.19 405.192L1484 434L1481.81 405.192L1453 403L1481.81 400.808L1484 372Z" fill="white"/>
<path d="M35 321L38.6062 368.394L86 372L38.6062 375.606L35 423L31.3938 375.606L-16 372L31.3938 368.394L35 321Z" fill="white"/>
<path d="M1630 2614L1634.53 2673.47L1694 2678L1634.53 2682.53L1630 2742L1625.47 2682.53L1566 2678L1625.47 2673.47L1630 2614Z" fill="white"/>
</svg>
