<svg width="1650" height="2252" viewBox="0 0 1650 2252" fill="none" xmlns="http://www.w3.org/2000/svg">
<path d="M282 802L285.536 848.464L332 852L285.536 855.536L282 902L278.464 855.536L232 852L278.464 848.464L282 802Z" fill="white"/>
<path d="M343.5 882L346.01 914.99L379 917.5L346.01 920.01L343.5 953L340.99 920.01L308 917.5L340.99 914.99L343.5 882Z" fill="white"/>
<path d="M1531 0L1534.61 47.3938L1582 51L1534.61 54.6062L1531 102L1527.39 54.6062L1480 51L1527.39 47.3938L1531 0Z" fill="white"/>
<path d="M1597 550L1600.75 599.252L1650 603L1600.75 606.748L1597 656L1593.25 606.748L1544 603L1593.25 599.252L1597 550Z" fill="white"/>
<path d="M1500.5 649L1503.29 685.707L1540 688.5L1503.29 691.293L1500.5 728L1497.71 691.293L1461 688.5L1497.71 685.707L1500.5 649Z" fill="white"/>
<path d="M1424.5 1138L1427.29 1174.71L1464 1177.5L1427.29 1180.29L1424.5 1217L1421.71 1180.29L1385 1177.5L1421.71 1174.71L1424.5 1138Z" fill="white"/>
<path d="M1035.5 2173L1038.29 2209.71L1075 2212.5L1038.29 2215.29L1035.5 2252L1032.71 2215.29L996 2212.5L1032.71 2209.71L1035.5 2173Z" fill="white"/>
<path d="M943.5 1298L946.293 1334.71L983 1337.5L946.293 1340.29L943.5 1377L940.707 1340.29L904 1337.5L940.707 1334.71L943.5 1298Z" fill="white"/>
<path d="M39.5 617L42.2931 653.707L79 656.5L42.2931 659.293L39.5 696L36.7069 659.293L0 656.5L36.7069 653.707L39.5 617Z" fill="white"/>
<path d="M354.5 1591L357.293 1627.71L394 1630.5L357.293 1633.29L354.5 1670L351.707 1633.29L315 1630.5L351.707 1627.71L354.5 1591Z" fill="white"/>
</svg>
