<svg width="1920" height="2875" viewBox="0 0 1920 2875" fill="none" xmlns="http://www.w3.org/2000/svg">
<path d="M388 1251L391.536 1297.46L438 1301L391.536 1304.54L388 1351L384.464 1304.54L338 1301L384.464 1297.46L388 1251Z" fill="white"/>
<path d="M449.5 1331L452.01 1363.99L485 1366.5L452.01 1369.01L449.5 1402L446.99 1369.01L414 1366.5L446.99 1363.99L449.5 1331Z" fill="white"/>
<path d="M1264.5 1074L1267.01 1106.99L1300 1109.5L1267.01 1112.01L1264.5 1145L1261.99 1112.01L1229 1109.5L1261.99 1106.99L1264.5 1074Z" fill="white"/>
<path d="M1212.5 102L1215.01 134.99L1248 137.5L1215.01 140.01L1212.5 173L1209.99 140.01L1177 137.5L1209.99 134.99L1212.5 102Z" fill="white"/>
<path d="M1484 372L1486.19 400.808L1515 403L1486.19 405.192L1484 434L1481.81 405.192L1453 403L1481.81 400.808L1484 372Z" fill="white"/>
<path d="M1637 449L1640.61 496.394L1688 500L1640.61 503.606L1637 551L1633.39 503.606L1586 500L1633.39 496.394L1637 449Z" fill="white"/>
<path d="M396 70L399.606 117.394L447 121L399.606 124.606L396 172L392.394 124.606L345 121L392.394 117.394L396 70Z" fill="white"/>
<path d="M553 312L556.606 359.394L604 363L556.606 366.606L553 414L549.394 366.606L502 363L549.394 359.394L553 312Z" fill="white"/>
<path d="M35 321L38.6062 368.394L86 372L38.6062 375.606L35 423L31.3938 375.606L-16 372L31.3938 368.394L35 321Z" fill="white"/>
<path d="M1876 0L1879.61 47.3938L1927 51L1879.61 54.6062L1876 102L1872.39 54.6062L1825 51L1872.39 47.3938L1876 0Z" fill="white"/>
<path d="M1607 1367L1610.75 1416.25L1660 1420L1610.75 1423.75L1607 1473L1603.25 1423.75L1554 1420L1603.25 1416.25L1607 1367Z" fill="white"/>
<path d="M1674.5 1341L1677.29 1377.71L1714 1380.5L1677.29 1383.29L1674.5 1420L1671.71 1383.29L1635 1380.5L1671.71 1377.71L1674.5 1341Z" fill="white"/>
<path d="M1699.5 1595L1702.29 1631.71L1739 1634.5L1702.29 1637.29L1699.5 1674L1696.71 1637.29L1660 1634.5L1696.71 1631.71L1699.5 1595Z" fill="white"/>
<path d="M1739.5 2473L1742.29 2509.71L1779 2512.5L1742.29 2515.29L1739.5 2552L1736.71 2515.29L1700 2512.5L1736.71 2509.71L1739.5 2473Z" fill="white"/>
<path d="M807.5 2796L810.293 2832.71L847 2835.5L810.293 2838.29L807.5 2875L804.707 2838.29L768 2835.5L804.707 2832.71L807.5 2796Z" fill="white"/>
<path d="M126 2560L130.172 2614.83L185 2619L130.172 2623.17L126 2678L121.828 2623.17L67 2619L121.828 2614.83L126 2560Z" fill="white"/>
<path d="M1049.5 1747L1052.29 1783.71L1089 1786.5L1052.29 1789.29L1049.5 1826L1046.71 1789.29L1010 1786.5L1046.71 1783.71L1049.5 1747Z" fill="white"/>
<path d="M145.5 1066L148.293 1102.71L185 1105.5L148.293 1108.29L145.5 1145L142.707 1108.29L106 1105.5L142.707 1102.71L145.5 1066Z" fill="white"/>
<path d="M578 675L583.303 744.697L653 750L583.303 755.303L578 825L572.697 755.303L503 750L572.697 744.697L578 675Z" fill="white"/>
<path d="M728 1191L733.303 1260.7L803 1266L733.303 1271.3L728 1341L722.697 1271.3L653 1266L722.697 1260.7L728 1191Z" fill="white"/>
<path d="M169.5 2099L172.293 2135.71L209 2138.5L172.293 2141.29L169.5 2178L166.707 2141.29L130 2138.5L166.707 2135.71L169.5 2099Z" fill="white"/>
<path d="M767.5 2285L770.293 2321.71L807 2324.5L770.293 2327.29L767.5 2364L764.707 2327.29L728 2324.5L764.707 2321.71L767.5 2285Z" fill="white"/>
<path d="M886 2362L890.525 2421.47L950 2426L890.525 2430.53L886 2490L881.475 2430.53L822 2426L881.475 2421.47L886 2362Z" fill="white"/>
<path d="M1630 2614L1634.53 2673.47L1694 2678L1634.53 2682.53L1630 2742L1625.47 2682.53L1566 2678L1625.47 2673.47L1630 2614Z" fill="white"/>
<path d="M462.5 2490L465.293 2526.71L502 2529.5L465.293 2532.29L462.5 2569L459.707 2532.29L423 2529.5L459.707 2526.71L462.5 2490Z" fill="white"/>
<path d="M515 2413L517.121 2440.88L545 2443L517.121 2445.12L515 2473L512.879 2445.12L485 2443L512.879 2440.88L515 2413Z" fill="white"/>
</svg>
